<svg xmlns="http://www.w3.org/2000/svg" xmlns:xlink="http://www.w3.org/1999/xlink" width="50" zoomAndPan="magnify" viewBox="0 0 37.5 37.499999" height="50" preserveAspectRatio="xMidYMid meet" version="1.0">
   <defs>
      <clipPath id="47130c08c2">
         <path d="M 0 0 L 37.007812 0 L 37.007812 37.007812 L 0 37.007812 Z M 0 0 " clip-rule="nonzero"/>
      </clipPath>
      <clipPath id="f7d59681a9">
         <path d="M 0.859375 20 L 36.386719 20 L 36.386719 31.085938 L 0.859375 31.085938 Z M 0.859375 20 " clip-rule="nonzero"/>
      </clipPath>
      <clipPath id="9a221f95fd">
         <path d="M 3 3.699219 L 31 3.699219 L 31 21 L 3 21 Z M 3 3.699219 " clip-rule="nonzero"/>
      </clipPath>
   </defs>
   <g clip-path="url(#47130c08c2)">
      <path fill="transparent" d="M 0 0 L 37.007812 0 L 37.007812 37.007812 L 0 37.007812 Z M 0 0 " fill-opacity="1" fill-rule="nonzero"/>
      <path fill="transparent" d="M 0 0 L 37.007812 0 L 37.007812 37.007812 L 0 37.007812 Z M 0 0 " fill-opacity="1" fill-rule="nonzero"/>
   </g>
   <g clip-path="url(#f7d59681a9)">
      <path fill="#000000" d="M 3.433594 29.367188 C 3.460938 29.367188 3.460938 29.367188 3.433594 29.367188 C 3.488281 29.394531 3.488281 29.394531 3.515625 29.394531 C 3.515625 29.394531 3.542969 29.394531 3.542969 29.394531 C 3.570312 29.394531 3.625 29.394531 3.652344 29.394531 C 3.683594 29.394531 3.710938 29.394531 3.738281 29.394531 C 3.820312 29.394531 10.40625 28.519531 14.75 28.164062 L 14.222656 30.351562 C 14.140625 30.648438 14.335938 30.949219 14.636719 31.003906 C 14.695312 31.003906 14.722656 31.03125 14.777344 31.03125 C 15.027344 31.03125 15.246094 30.867188 15.300781 30.621094 L 15.882812 28.300781 C 15.964844 28.300781 16.050781 28.328125 16.132812 28.328125 C 16.1875 28.328125 16.214844 28.328125 16.269531 28.328125 L 16.851562 30.648438 C 16.90625 30.894531 17.128906 31.058594 17.378906 31.058594 C 17.433594 31.058594 17.460938 31.058594 17.515625 31.03125 C 17.820312 30.949219 17.988281 30.675781 17.929688 30.378906 L 17.351562 28.054688 C 17.378906 28.054688 17.433594 28.054688 17.488281 28.054688 C 17.488281 28.054688 17.515625 28.054688 17.515625 28.054688 C 20.585938 28.054688 29.027344 29.011719 31.378906 29.285156 C 31.488281 29.3125 31.597656 29.339844 31.710938 29.367188 C 32.042969 29.421875 32.347656 29.449219 32.652344 29.449219 C 34.007812 29.449219 35.28125 28.984375 36.164062 28.136719 C 36.386719 27.917969 36.386719 27.59375 36.191406 27.375 C 35.972656 27.15625 35.640625 27.15625 35.417969 27.347656 C 34.671875 28.054688 33.507812 28.410156 32.320312 28.328125 C 32.261719 28.300781 32.207031 28.300781 32.152344 28.273438 C 32.097656 28.273438 31.902344 28.246094 31.570312 28.21875 C 30.90625 28.027344 30.328125 27.59375 29.855469 26.964844 C 29.273438 26.117188 29.027344 25.050781 29.191406 24.125 C 29.386719 22.949219 30.464844 21.503906 31.902344 21.285156 C 31.988281 21.285156 32.042969 21.257812 32.097656 21.257812 C 32.261719 21.257812 32.429688 21.257812 32.59375 21.257812 C 34.671875 21.53125 35.003906 23.003906 34.917969 24.179688 C 34.835938 25.214844 33.953125 25.652344 33.175781 25.625 C 32.84375 25.625 32.625 25.433594 32.484375 25.296875 C 32.292969 25.078125 32.179688 24.78125 32.207031 24.507812 C 32.207031 24.425781 32.207031 24.371094 32.179688 24.289062 C 32.207031 24.125 32.292969 23.960938 32.402344 23.824219 C 32.511719 23.714844 32.59375 23.6875 32.652344 23.6875 C 32.957031 23.6875 33.203125 23.441406 33.203125 23.140625 C 33.203125 22.839844 32.957031 22.59375 32.652344 22.59375 C 32.261719 22.59375 31.902344 22.757812 31.597656 23.085938 C 31.210938 23.496094 31.019531 24.070312 31.046875 24.644531 C 31.046875 24.726562 31.074219 24.808594 31.101562 24.863281 C 31.15625 25.296875 31.351562 25.707031 31.65625 26.035156 C 32.042969 26.445312 32.566406 26.691406 33.121094 26.71875 C 34.671875 26.773438 35.886719 25.734375 36 24.261719 C 36.164062 21.996094 34.949219 20.492188 32.734375 20.164062 C 32.566406 20.136719 32.402344 20.136719 32.234375 20.136719 C 32.179688 20.136719 32.152344 20.136719 32.097656 20.136719 C 32.097656 20.136719 32.042969 20.136719 31.988281 20.136719 C 31.960938 20.136719 31.929688 20.136719 31.929688 20.136719 C 31.765625 20.164062 31.542969 20.164062 31.210938 20.21875 C 31.210938 20.273438 31.210938 20.300781 31.183594 20.355469 C 31.183594 20.410156 31.183594 20.4375 31.15625 20.492188 C 31.15625 20.519531 31.128906 20.546875 31.128906 20.574219 C 31.128906 20.628906 31.101562 20.65625 31.101562 20.710938 C 31.101562 20.738281 31.074219 20.792969 31.046875 20.820312 C 31.019531 20.847656 31.019531 20.875 30.992188 20.902344 C 30.964844 20.957031 30.90625 21.039062 30.878906 21.09375 C 30.851562 21.148438 30.796875 21.203125 30.742188 21.257812 C 30.6875 21.3125 30.660156 21.339844 30.601562 21.394531 C 30.300781 21.640625 29.910156 21.777344 29.523438 21.777344 L 29.054688 21.777344 C 28.527344 22.402344 28.195312 23.167969 28.058594 23.90625 C 27.808594 25.105469 28.140625 26.472656 28.886719 27.566406 C 28.972656 27.703125 29.082031 27.808594 29.164062 27.917969 C 25.871094 27.566406 20.613281 27.019531 17.929688 26.964844 C 17.988281 26.800781 18.015625 26.609375 18.015625 26.417969 C 18.015625 25.542969 17.433594 24.808594 16.628906 24.589844 C 16.6875 23.824219 16.992188 23.058594 17.597656 22.457031 C 17.65625 22.402344 17.683594 22.375 17.710938 22.320312 C 19.894531 22.292969 24.074219 21.96875 27.394531 21.667969 C 27.089844 21.558594 26.8125 21.367188 26.617188 21.09375 C 26.507812 20.957031 26.453125 20.820312 26.398438 20.65625 C 23.160156 20.957031 19.371094 21.230469 17.488281 21.230469 C 17.488281 21.230469 17.460938 21.230469 17.460938 21.230469 C 14.003906 21.230469 3.570312 20.164062 3.460938 20.136719 C 3.433594 20.136719 3.433594 20.136719 3.40625 20.136719 C 3.292969 20.136719 3.183594 20.136719 3.074219 20.191406 C 1.691406 20.929688 0.859375 22.730469 0.914062 24.78125 C 0.96875 26.910156 1.9375 28.65625 3.433594 29.367188 Z M 16.960938 26.417969 C 16.960938 26.882812 16.601562 27.238281 16.132812 27.238281 C 15.664062 27.238281 15.300781 26.882812 15.300781 26.417969 C 15.300781 25.953125 15.664062 25.597656 16.132812 25.597656 C 16.601562 25.597656 16.960938 25.953125 16.960938 26.417969 Z M 3.488281 21.230469 C 4.648438 21.339844 12.398438 22.128906 16.355469 22.292969 C 15.882812 22.976562 15.605469 23.769531 15.578125 24.589844 C 14.777344 24.835938 14.195312 25.570312 14.195312 26.417969 C 14.195312 26.664062 14.25 26.910156 14.335938 27.128906 C 10.351562 27.457031 4.871094 28.164062 3.792969 28.300781 C 2.546875 27.621094 2.050781 26.035156 2.023438 24.753906 C 1.992188 23.195312 2.546875 21.832031 3.488281 21.230469 Z M 3.488281 21.230469 " fill-opacity="1" fill-rule="nonzero"/>
   </g>
   <g clip-path="url(#9a221f95fd)">
      <path fill="#000000" d="M 3.765625 9.1875 L 7.003906 10.335938 L 7.003906 15.46875 C 7.003906 17.460938 10.210938 19.480469 16.355469 19.480469 C 22.496094 19.480469 25.707031 17.460938 25.707031 15.46875 L 25.707031 10.335938 L 28.195312 9.460938 L 28.195312 14.894531 C 27.503906 15.113281 27.007812 15.769531 27.007812 16.53125 C 27.007812 17.242188 27.421875 17.84375 28.058594 18.117188 L 27.449219 19.945312 C 27.394531 20.109375 27.421875 20.300781 27.53125 20.4375 C 27.644531 20.574219 27.808594 20.65625 27.976562 20.65625 L 29.578125 20.65625 C 29.746094 20.65625 29.910156 20.574219 30.023438 20.4375 C 30.132812 20.300781 30.160156 20.109375 30.105469 19.945312 L 29.496094 18.117188 C 30.105469 17.84375 30.546875 17.242188 30.546875 16.53125 C 30.546875 15.769531 30.050781 15.113281 29.359375 14.894531 L 29.359375 8.585938 C 29.359375 8.285156 29.109375 8.039062 28.804688 8.039062 C 28.75 8.039062 28.722656 8.039062 28.667969 8.066406 L 16.546875 3.78125 C 16.4375 3.726562 16.296875 3.726562 16.1875 3.78125 L 3.765625 8.175781 C 3.542969 8.257812 3.40625 8.449219 3.40625 8.695312 C 3.40625 8.941406 3.542969 9.105469 3.765625 9.1875 Z M 24.597656 15.46875 C 24.597656 16.695312 21.722656 18.390625 16.355469 18.390625 C 10.988281 18.390625 8.109375 16.695312 8.109375 15.46875 L 8.109375 10.742188 L 16.1875 13.582031 C 16.242188 13.609375 16.296875 13.609375 16.382812 13.609375 C 16.464844 13.609375 16.519531 13.609375 16.574219 13.582031 L 24.625 10.742188 L 24.625 15.46875 Z M 28.722656 19.589844 L 28.75 19.480469 L 28.777344 19.589844 Z M 28.777344 17.1875 C 28.417969 17.1875 28.140625 16.886719 28.140625 16.53125 C 28.140625 16.179688 28.417969 15.878906 28.777344 15.878906 C 29.136719 15.878906 29.414062 16.179688 29.414062 16.53125 C 29.414062 16.914062 29.136719 17.1875 28.777344 17.1875 Z M 16.355469 4.875 L 25.84375 8.230469 L 16.769531 8.230469 C 16.464844 8.230469 16.214844 8.476562 16.214844 8.777344 C 16.214844 9.078125 16.464844 9.324219 16.769531 9.324219 L 25.289062 9.324219 L 16.355469 12.492188 L 5.589844 8.695312 Z M 16.355469 4.875 " fill-opacity="1" fill-rule="nonzero"/>
   </g>
</svg>