<svg xmlns="http://www.w3.org/2000/svg" xmlns:xlink="http://www.w3.org/1999/xlink" width="50" zoomAndPan="magnify" viewBox="0 0 37.5 37.499999" height="50" preserveAspectRatio="xMidYMid meet" version="1.0">
   <defs>
      <clipPath id="ffb249d9d5">
         <path d="M 0 0 L 37.007812 0 L 37.007812 37.007812 L 0 37.007812 Z M 0 0 " clip-rule="nonzero"/>
      </clipPath>
      <clipPath id="3b5d7527a3">
         <path d="M 9 13 L 34.671875 13 L 34.671875 35 L 9 35 Z M 9 13 " clip-rule="nonzero"/>
      </clipPath>
      <clipPath id="631919e422">
         <path d="M 15 1.851562 L 24 1.851562 L 24 15 L 15 15 Z M 15 1.851562 " clip-rule="nonzero"/>
      </clipPath>
      <clipPath id="5502ffce28">
         <path d="M 2.105469 24 L 9 24 L 9 27 L 2.105469 27 Z M 2.105469 24 " clip-rule="nonzero"/>
      </clipPath>
      <clipPath id="980b5ff0ab">
         <path d="M 2.105469 17 L 10 17 L 10 35 L 2.105469 35 Z M 2.105469 17 " clip-rule="nonzero"/>
      </clipPath>
      <clipPath id="bd99da41f2">
         <path d="M 2.105469 20 L 9 20 L 9 21 L 2.105469 21 Z M 2.105469 20 " clip-rule="nonzero"/>
      </clipPath>
      <clipPath id="a32d756612">
         <path d="M 2.105469 19 L 9 19 L 9 20 L 2.105469 20 Z M 2.105469 19 " clip-rule="nonzero"/>
      </clipPath>
      <clipPath id="22ac216349">
         <path d="M 2.105469 20 L 9 20 L 9 22 L 2.105469 22 Z M 2.105469 20 " clip-rule="nonzero"/>
      </clipPath>
      <clipPath id="dcd1aa001a">
         <path d="M 25 1.851562 L 33 1.851562 L 33 13 L 25 13 Z M 25 1.851562 " clip-rule="nonzero"/>
      </clipPath>
   </defs>
   <g clip-path="url(#ffb249d9d5)">
      <path fill="transparent" d="M 0 0 L 37.007812 0 L 37.007812 37.007812 L 0 37.007812 Z M 0 0 " fill-opacity="1" fill-rule="nonzero"/>
      <path fill="transparent" d="M 0 0 L 37.007812 0 L 37.007812 37.007812 L 0 37.007812 Z M 0 0 " fill-opacity="1" fill-rule="nonzero"/>
   </g>
   <g clip-path="url(#3b5d7527a3)">
      <pathclass="sg" d="M 34.414062 25.179688 L 34.1875 25.179688 C 34.179688 25.117188 33.78125 22.023438 33.617188 21.777344 C 33.582031 21.726562 33.542969 21.675781 33.496094 21.632812 C 33.585938 21.605469 33.675781 21.578125 33.761719 21.535156 C 33.765625 21.535156 33.765625 21.535156 33.765625 21.535156 C 33.902344 21.472656 34.070312 21.332031 34.097656 21.023438 C 34.1875 20.03125 32.699219 17.949219 32.257812 17.640625 C 32.0625 17.507812 31.746094 17.414062 31.328125 17.363281 L 31.335938 16.695312 C 31.375 16.675781 31.417969 16.652344 31.457031 16.625 C 31.46875 16.636719 31.484375 16.644531 31.492188 16.660156 C 31.523438 16.703125 31.574219 16.722656 31.625 16.726562 C 31.628906 16.726562 31.636719 16.726562 31.636719 16.726562 C 31.6875 16.726562 31.730469 16.707031 31.769531 16.671875 C 32.082031 16.363281 32.34375 15.996094 32.59375 15.640625 L 32.730469 15.445312 C 32.777344 15.378906 32.78125 15.292969 32.734375 15.226562 C 32.5625 14.953125 32.308594 14.742188 32.078125 14.566406 C 31.605469 14.199219 30.851562 13.746094 30.320312 13.613281 C 30.253906 13.597656 30.1875 13.617188 30.140625 13.664062 C 29.882812 13.921875 29.738281 14.320312 29.617188 14.675781 C 29.566406 14.824219 28.761719 16.328125 29.378906 17.125 C 29.464844 17.207031 29.585938 17.273438 29.765625 17.292969 L 29.765625 17.308594 C 29.367188 17.324219 29.046875 17.378906 28.800781 17.492188 C 28.261719 17.734375 27.410156 19.335938 27.085938 19.980469 L 25.285156 18.703125 C 25.273438 18.699219 25.265625 18.703125 25.253906 18.699219 C 25.207031 18.140625 25.113281 17.882812 24.933594 17.796875 C 24.800781 17.734375 24.699219 17.773438 24.652344 17.804688 C 24.601562 17.835938 24.566406 17.882812 24.535156 17.9375 C 24.496094 17.886719 24.453125 17.832031 24.410156 17.773438 C 24.199219 17.511719 23.996094 17.535156 23.898438 17.574219 C 23.679688 17.652344 23.546875 17.9375 23.550781 18.308594 C 23.558594 18.734375 23.773438 19.28125 24.316406 19.542969 C 24.320312 19.570312 24.320312 19.601562 24.34375 19.621094 C 24.886719 20.246094 26.71875 22.300781 27.328125 22.300781 C 27.335938 22.300781 27.335938 22.300781 27.339844 22.300781 C 27.808594 22.285156 28.28125 21.679688 28.558594 21.257812 L 28.800781 21.957031 C 28.679688 22.222656 28.574219 22.53125 28.46875 22.875 C 27.8125 22.878906 25.984375 22.664062 25.984375 22.664062 C 23.757812 22.414062 21.484375 22.238281 19.285156 22.625 C 18.675781 22.730469 17.9375 22.960938 16.816406 22.53125 C 16.734375 22.5 16.019531 22.203125 15.714844 22.210938 C 15.601562 22.101562 15.480469 21.992188 15.332031 21.898438 C 15.09375 21.746094 14.824219 21.679688 14.589844 21.714844 C 14.328125 21.390625 13.890625 21.386719 13.519531 21.46875 C 13.285156 21.46875 13.039062 21.496094 12.804688 21.53125 L 12.804688 13.609375 C 12.984375 13.65625 13.144531 13.761719 13.257812 13.921875 C 13.40625 14.136719 13.65625 14.269531 13.914062 14.269531 C 13.945312 14.269531 13.976562 14.265625 14.007812 14.261719 L 14.007812 14.492188 L 13.542969 14.492188 C 13.335938 14.492188 13.171875 14.660156 13.171875 14.867188 L 13.171875 16.808594 C 13.171875 17.019531 13.335938 17.183594 13.542969 17.183594 L 14.773438 17.183594 C 14.976562 17.183594 15.144531 17.019531 15.144531 16.808594 L 15.144531 14.867188 C 15.144531 14.660156 14.976562 14.492188 14.773438 14.492188 L 14.308594 14.492188 L 14.308594 14.164062 C 14.550781 14.023438 14.71875 13.761719 14.71875 13.460938 C 14.71875 13.386719 14.664062 13.332031 14.59375 13.332031 C 14.523438 13.332031 14.464844 13.386719 14.464844 13.460938 C 14.464844 13.671875 14.34375 13.851562 14.171875 13.941406 L 14.007812 13.941406 L 14.007812 13.992188 C 13.976562 14 13.949219 14.015625 13.914062 14.015625 C 13.738281 14.015625 13.570312 13.921875 13.46875 13.777344 C 13.273438 13.496094 12.960938 13.332031 12.636719 13.332031 C 12.308594 13.332031 12 13.496094 11.808594 13.777344 C 11.703125 13.921875 11.535156 14.015625 11.355469 14.015625 C 11.339844 14.015625 11.328125 14.003906 11.304688 14.003906 L 11.304688 13.941406 L 11.105469 13.941406 C 10.929688 13.851562 10.804688 13.671875 10.804688 13.460938 C 10.804688 13.386719 10.75 13.332031 10.679688 13.332031 C 10.613281 13.332031 10.550781 13.386719 10.550781 13.460938 C 10.550781 13.777344 10.742188 14.050781 11.003906 14.183594 L 11.003906 14.492188 L 10.542969 14.492188 C 10.335938 14.492188 10.167969 14.660156 10.167969 14.867188 L 10.167969 16.808594 C 10.167969 17.019531 10.335938 17.183594 10.542969 17.183594 L 11.769531 17.183594 C 11.972656 17.183594 12.140625 17.019531 12.140625 16.808594 L 12.140625 14.867188 C 12.140625 14.660156 11.972656 14.492188 11.769531 14.492188 L 11.304688 14.492188 L 11.304688 14.265625 C 11.328125 14.265625 11.339844 14.269531 11.355469 14.269531 C 11.621094 14.269531 11.867188 14.136719 12.015625 13.921875 C 12.125 13.761719 12.289062 13.65625 12.46875 13.609375 L 12.46875 21.597656 C 12.175781 21.664062 11.921875 21.734375 11.753906 21.792969 C 11.632812 21.75 11.496094 21.742188 11.367188 21.765625 C 11.144531 21.8125 10.960938 21.949219 10.8125 22.105469 C 10.628906 22.292969 10.492188 22.542969 10.558594 22.78125 C 10.585938 22.921875 10.683594 23.042969 10.6875 23.183594 C 10.699219 23.402344 10.476562 23.625 10.578125 23.828125 C 10.648438 23.960938 10.835938 24.019531 10.929688 24.140625 C 11.046875 24.296875 10.996094 24.496094 11.054688 24.671875 C 11.121094 24.875 11.335938 25.019531 11.570312 25.089844 C 11.589844 25.097656 11.621094 25.101562 11.640625 25.105469 L 10.152344 25.105469 C 10.027344 25.105469 9.925781 25.210938 9.925781 25.335938 L 9.925781 26.359375 C 9.925781 26.488281 10.027344 26.589844 10.152344 26.589844 L 12.46875 26.589844 L 12.46875 33.597656 L 10.363281 33.597656 C 10.265625 33.597656 10.191406 33.667969 10.191406 33.765625 C 10.191406 33.859375 10.265625 33.9375 10.363281 33.9375 L 10.367188 33.9375 C 10.269531 34.023438 10.207031 34.148438 10.207031 34.285156 C 10.207031 34.542969 10.410156 34.746094 10.664062 34.746094 C 10.917969 34.746094 11.128906 34.542969 11.128906 34.285156 C 11.128906 34.148438 11.0625 34.023438 10.960938 33.9375 L 12.339844 33.9375 C 12.242188 34.023438 12.175781 34.148438 12.175781 34.285156 C 12.175781 34.542969 12.382812 34.746094 12.636719 34.746094 C 12.886719 34.746094 13.09375 34.542969 13.09375 34.285156 C 13.09375 34.148438 13.027344 34.023438 12.933594 33.9375 L 14.308594 33.9375 C 14.210938 34.023438 14.144531 34.148438 14.144531 34.285156 C 14.144531 34.511719 14.3125 34.691406 14.523438 34.730469 C 14.597656 34.855469 14.726562 34.941406 14.882812 34.941406 C 14.882812 34.941406 31.996094 35.054688 31.996094 34.941406 C 32.003906 34.664062 32.03125 33.976562 32.078125 33.683594 L 32.28125 33.691406 L 32.511719 29.695312 C 32.609375 29.671875 32.710938 29.652344 32.8125 29.632812 C 32.894531 29.613281 32.957031 29.535156 32.957031 29.445312 C 32.964844 29.207031 32.964844 28.976562 32.964844 28.746094 L 33.464844 28.753906 L 33.480469 28.753906 C 33.679688 28.753906 33.859375 28.671875 33.988281 28.519531 C 34.132812 28.359375 34.199219 28.144531 34.167969 27.933594 C 34.144531 27.699219 34.085938 26.640625 34.097656 26.589844 L 34.414062 26.589844 C 34.539062 26.589844 34.640625 26.488281 34.640625 26.359375 L 34.640625 25.410156 C 34.640625 25.28125 34.539062 25.179688 34.414062 25.179688 Z M 14.761719 14.875 L 14.761719 15.328125 L 13.542969 15.328125 L 13.542969 14.875 Z M 11.757812 14.875 L 11.765625 15.328125 L 10.546875 15.328125 L 10.542969 14.875 Z M 31.183594 16.34375 C 31.125 16.375 31.085938 16.394531 31.078125 16.394531 C 31.007812 16.421875 30.957031 16.492188 30.957031 16.570312 L 30.953125 16.683594 C 30.867188 16.710938 30.769531 16.742188 30.667969 16.769531 C 30.359375 16.691406 30.304688 16.332031 30.300781 16.1875 C 30.441406 16.136719 30.632812 16.078125 30.816406 16.035156 C 30.941406 16.136719 31.066406 16.234375 31.183594 16.34375 Z M 30.953125 16.773438 L 30.949219 17.332031 L 30.148438 17.308594 L 30.140625 17.175781 C 30.390625 17.082031 30.609375 16.933594 30.71875 16.851562 C 30.800781 16.824219 30.882812 16.800781 30.953125 16.773438 Z M 29.582031 15.972656 C 29.628906 15.777344 29.6875 15.582031 29.761719 15.40625 C 30.023438 15.476562 30.285156 15.597656 30.464844 15.75 C 30.554688 15.824219 30.640625 15.898438 30.726562 15.964844 C 30.5 16.023438 30.273438 16.101562 30.148438 16.148438 C 29.878906 16.167969 29.695312 16.078125 29.582031 15.972656 Z M 23.941406 18.390625 C 23.914062 18.117188 23.996094 17.953125 24.015625 17.933594 C 24.015625 17.933594 24.050781 17.945312 24.109375 18.015625 C 24.261719 18.207031 24.394531 18.375 24.503906 18.511719 C 24.554688 18.574219 24.644531 18.601562 24.71875 18.570312 C 24.78125 18.550781 24.828125 18.5 24.84375 18.429688 C 24.855469 18.535156 24.871094 18.683594 24.882812 18.867188 L 24.511719 19.210938 C 24.042969 19 23.957031 18.535156 23.941406 18.390625 Z M 28.78125 20.75 C 28.757812 20.679688 28.695312 20.628906 28.617188 20.621094 C 28.535156 20.613281 28.46875 20.652344 28.433594 20.71875 C 28.164062 21.207031 27.644531 21.90625 27.328125 21.914062 C 27.039062 21.910156 25.796875 20.6875 24.753906 19.507812 L 25.1875 19.109375 L 27.042969 20.425781 C 27.089844 20.457031 27.152344 20.46875 27.203125 20.453125 C 27.257812 20.441406 27.304688 20.402344 27.328125 20.355469 C 27.757812 19.472656 28.558594 17.964844 28.953125 17.839844 C 30.367188 17.410156 31.925781 17.878906 32.042969 17.960938 C 32.398438 18.210938 33.792969 20.195312 33.71875 20.988281 C 33.703125 21.121094 33.652344 21.167969 33.601562 21.1875 C 33.074219 21.429688 32.421875 21.355469 32.113281 21.304688 C 32.15625 21.058594 32.214844 20.644531 32.242188 20.5 C 32.261719 20.398438 32.191406 20.292969 32.089844 20.277344 C 31.980469 20.257812 31.886719 20.328125 31.871094 20.433594 C 31.835938 20.636719 31.710938 21.429688 31.710938 21.429688 L 31.625 22.023438 C 31.574219 22.027344 31.519531 22.035156 31.460938 22.039062 C 31.460938 22.023438 31.457031 22.007812 31.457031 21.988281 C 31.410156 21.660156 31.402344 21.332031 31.375 20.992188 C 31.304688 21.324219 31.304688 21.664062 31.335938 22.003906 C 31.339844 22.019531 31.34375 22.035156 31.34375 22.046875 C 31.132812 22.0625 30.910156 22.070312 30.699219 22.070312 C 30.734375 21.75 30.789062 21.429688 30.886719 21.113281 C 30.726562 21.414062 30.625 21.734375 30.574219 22.070312 C 30.40625 22.0625 30.242188 22.054688 30.082031 22.039062 C 30.085938 21.757812 30.066406 21.472656 30 21.203125 C 29.996094 21.480469 29.984375 21.757812 29.964844 22.023438 C 29.800781 22.007812 29.636719 21.988281 29.472656 21.957031 C 29.460938 21.675781 29.386719 21.398438 29.261719 21.144531 C 29.328125 21.40625 29.347656 21.667969 29.351562 21.9375 C 29.296875 21.925781 29.238281 21.914062 29.183594 21.898438 Z M 16.683594 22.890625 C 17.375 23.152344 18.121094 23.121094 18.847656 23.050781 C 18.847656 23.070312 18.855469 23.085938 18.859375 23.105469 C 18.878906 23.222656 18.914062 23.351562 19.023438 23.417969 C 19.109375 23.476562 19.214844 23.480469 19.3125 23.476562 C 19.753906 23.464844 20.199219 23.402344 20.636719 23.304688 C 20.800781 23.257812 20.980469 23.214844 21.152344 23.222656 C 21.320312 23.234375 21.476562 23.296875 21.640625 23.304688 C 21.851562 23.316406 22.136719 23.339844 22.253906 23.15625 C 22.289062 23.105469 22.289062 22.972656 22.277344 22.859375 C 23.5 22.855469 27.714844 23.253906 28.375 23.257812 C 28.128906 24.214844 27.933594 25.382812 27.726562 26.671875 C 27.640625 27.203125 27.546875 27.75 27.453125 28.296875 L 15.1875 28.152344 C 15.09375 28.152344 14.996094 28.109375 14.933594 28.03125 C 14.878906 27.964844 14.851562 27.886719 14.867188 27.804688 C 14.941406 27.378906 14.851562 26.921875 14.765625 26.488281 L 14.726562 26.25 C 14.5625 25.332031 14.628906 24.382812 14.914062 23.5 C 15.082031 22.976562 15.316406 22.675781 15.613281 22.609375 C 15.867188 22.550781 16.597656 22.859375 16.683594 22.890625 Z M 15.195312 22.128906 C 15.265625 22.175781 15.332031 22.226562 15.398438 22.285156 C 15.265625 22.339844 15.144531 22.417969 15.035156 22.527344 L 14.765625 22.480469 C 14.792969 22.308594 14.785156 22.140625 14.730469 21.976562 C 14.875 21.976562 15.035156 22.035156 15.195312 22.128906 Z M 12.769531 23.585938 C 12.828125 23.496094 12.917969 23.410156 12.90625 23.300781 C 12.894531 23.183594 12.761719 23.09375 12.632812 23.050781 C 12.523438 23.011719 12.410156 22.984375 12.316406 22.929688 C 12.265625 22.734375 12.191406 22.535156 12.089844 22.347656 C 12.085938 22.257812 12.082031 22.175781 12.058594 22.101562 C 12.332031 22.023438 12.660156 21.945312 12.992188 21.894531 C 13.160156 22.085938 13.34375 22.4375 13.15625 22.984375 C 13.15625 22.984375 14.089844 23.054688 14.007812 23.765625 C 14.007812 23.765625 14.433594 23.363281 14.65625 22.847656 L 14.777344 22.871094 C 14.691406 23.019531 14.613281 23.183594 14.546875 23.378906 C 14.472656 23.617188 14.410156 23.859375 14.363281 24.105469 C 14.363281 24.105469 13.644531 24.027344 13.640625 24.023438 C 13.546875 23.910156 13.390625 23.847656 13.234375 23.835938 C 13.070312 23.824219 12.910156 23.847656 12.757812 23.875 C 12.667969 23.804688 12.707031 23.675781 12.769531 23.585938 Z M 14.3125 24.492188 C 14.289062 24.714844 14.265625 24.875 14.265625 25.105469 L 12.886719 25.105469 C 13.457031 24.972656 13.875 24.671875 14.097656 24.46875 Z M 14.460938 33.566406 L 14.460938 33.597656 L 12.804688 33.597656 L 12.804688 26.589844 L 14.398438 26.589844 C 14.476562 26.984375 14.546875 27.394531 14.492188 27.742188 C 14.460938 27.933594 14.511719 28.125 14.640625 28.277344 C 14.773438 28.441406 14.96875 28.539062 15.183594 28.539062 L 17.914062 28.574219 L 17.914062 33.144531 L 14.882812 33.144531 C 14.648438 33.144531 14.460938 33.335938 14.460938 33.566406 Z M 26.960938 33.757812 C 26.640625 33.921875 25.367188 34.082031 25.179688 34.285156 C 25.105469 34.355469 25.105469 34.464844 25.121094 34.558594 L 14.882812 34.558594 C 14.863281 34.558594 14.84375 34.542969 14.84375 34.523438 L 14.84375 33.566406 C 14.84375 33.546875 14.863281 33.53125 14.882812 33.53125 L 27.171875 33.53125 L 27.171875 33.535156 L 27.226562 33.546875 C 27.152344 33.628906 27.0625 33.707031 26.960938 33.757812 Z M 27.21875 33.144531 L 26.90625 33.144531 L 26.90625 28.675781 L 27.378906 28.683594 C 27.347656 28.871094 27.3125 29.0625 27.277344 29.253906 C 27.261719 29.351562 27.320312 29.441406 27.410156 29.472656 C 27.488281 29.492188 27.5625 29.515625 27.640625 29.535156 Z M 29.980469 33.945312 C 29.511719 34.054688 28.96875 34.164062 28.851562 34.285156 C 28.785156 34.363281 28.78125 34.464844 28.796875 34.558594 L 28.300781 34.558594 C 28.300781 34.558594 28.308594 34.550781 28.308594 34.546875 C 28.3125 34.296875 28.339844 34.023438 28.378906 33.757812 L 28.5625 33.789062 L 28.625 33.53125 L 29.945312 33.53125 C 29.964844 33.53125 29.980469 33.546875 29.980469 33.566406 Z M 30.640625 33.757812 C 30.582031 33.792969 30.480469 33.824219 30.359375 33.855469 L 30.359375 33.566406 C 30.359375 33.335938 30.171875 33.144531 29.945312 33.144531 L 28.710938 33.144531 L 29.460938 29.894531 C 30.097656 30.027344 30.472656 29.941406 30.539062 29.933594 L 30.550781 33.640625 L 30.808594 33.644531 C 30.757812 33.691406 30.703125 33.730469 30.640625 33.757812 Z M 32.578125 29.289062 C 30.839844 29.683594 29.355469 29.648438 27.6875 29.15625 C 27.722656 28.953125 27.757812 28.757812 27.792969 28.558594 C 27.796875 28.539062 27.808594 28.519531 27.808594 28.492188 C 27.808594 28.492188 27.804688 28.492188 27.804688 28.488281 C 27.910156 27.898438 28.007812 27.308594 28.105469 26.734375 C 28.417969 24.796875 28.695312 23.132812 29.148438 22.117188 C 29.21875 22.128906 29.285156 22.140625 29.355469 22.15625 C 29.335938 22.5625 29.253906 22.960938 29.097656 23.347656 C 29.335938 23.011719 29.464844 22.597656 29.472656 22.175781 C 29.632812 22.203125 29.789062 22.234375 29.949219 22.25 C 29.945312 22.285156 29.945312 22.316406 29.9375 22.351562 C 29.898438 22.730469 29.816406 23.101562 29.730469 23.480469 C 29.914062 23.136719 30.003906 22.75 30.054688 22.367188 C 30.0625 22.332031 30.0625 22.292969 30.066406 22.253906 C 30.230469 22.269531 30.386719 22.28125 30.550781 22.285156 C 30.5 22.804688 30.570312 23.328125 30.765625 23.796875 C 30.660156 23.300781 30.636719 22.792969 30.671875 22.292969 C 30.707031 22.292969 30.738281 22.300781 30.773438 22.300781 C 30.976562 22.300781 31.183594 22.289062 31.386719 22.273438 C 31.429688 22.515625 31.488281 22.757812 31.59375 22.976562 C 31.558594 22.734375 31.523438 22.5 31.492188 22.265625 C 31.542969 22.257812 31.601562 22.25 31.65625 22.242188 C 32.347656 24 32.648438 26.300781 32.578125 29.289062 Z M 33.792969 27.980469 C 33.800781 28.082031 33.769531 28.191406 33.703125 28.261719 C 33.644531 28.332031 33.5625 28.355469 33.476562 28.371094 L 32.96875 28.359375 C 32.960938 25.761719 32.644531 23.707031 32.007812 22.089844 C 32.03125 21.839844 32.265625 21.867188 32.394531 21.816406 C 32.699219 21.699219 33.125 21.71875 33.300781 21.992188 C 33.402344 22.152344 33.746094 24.867188 33.78125 25.070312 C 33.8125 25.234375 33.761719 27.699219 33.792969 27.980469 Z M 33.792969 27.980469 " fill-opacity="1" fill-rule="nonzero"/>
   </g>
   <g clip-path="url(#631919e422)">
      <pathclass="sg" d="M 16.03125 13.425781 C 16.238281 13.9375 16.816406 14.246094 17.644531 14.300781 C 17.734375 14.304688 17.824219 14.3125 17.914062 14.3125 C 18.640625 14.3125 19.46875 14.132812 20.285156 13.792969 C 21.203125 13.414062 21.992188 12.875 22.519531 12.285156 C 23.070312 11.652344 23.261719 11.027344 23.054688 10.515625 C 22.957031 10.273438 22.738281 10.136719 22.535156 9.941406 C 22.136719 9.558594 21.492188 9.285156 20.585938 9.351562 C 20.046875 8.492188 19.125 8.03125 18.28125 8.199219 C 18.191406 8.128906 18.089844 8.082031 17.976562 8.066406 L 17.976562 1.914062 L 17.46875 1.914062 L 17.46875 8.210938 C 17.457031 8.222656 17.441406 8.226562 17.433594 8.238281 C 17.273438 8.390625 17.226562 8.605469 17.261719 8.8125 C 17.089844 9.023438 16.953125 9.273438 16.859375 9.558594 C 16.730469 9.996094 16.71875 10.472656 16.824219 10.941406 C 16.089844 11.59375 15.828125 12.285156 15.953125 12.871094 C 15.980469 13.003906 15.960938 13.253906 16.03125 13.425781 Z M 17.222656 9.667969 C 17.371094 9.179688 17.679688 8.820312 18.09375 8.648438 C 18.796875 8.355469 19.625 8.6875 20.148438 9.402344 C 19.660156 9.476562 19.140625 9.621094 18.609375 9.84375 C 18.058594 10.074219 17.570312 10.355469 17.15625 10.660156 C 17.109375 10.320312 17.125 9.980469 17.222656 9.667969 Z M 17.316406 11.46875 C 17.320312 11.464844 17.328125 11.457031 17.335938 11.453125 C 17.769531 11.09375 18.320312 10.765625 18.945312 10.503906 C 19.734375 10.175781 20.523438 10.015625 21.183594 10.015625 C 21.945312 10.015625 22.523438 10.234375 22.703125 10.664062 C 22.847656 11.027344 22.679688 11.527344 22.234375 12.027344 C 21.75 12.578125 21.007812 13.082031 20.144531 13.4375 C 19.277344 13.796875 18.394531 13.96875 17.671875 13.921875 C 17 13.875 16.53125 13.644531 16.382812 13.28125 C 16.179688 12.777344 16.570312 12.089844 17.316406 11.46875 Z M 17.316406 11.46875 " fill-opacity="1" fill-rule="nonzero"/>
   </g>
   <pathclass="sg" d="M 18.84375 12.390625 C 18.929688 12.609375 19.335938 12.640625 19.746094 12.46875 C 20.160156 12.300781 20.417969 11.988281 20.332031 11.777344 C 20.246094 11.566406 19.84375 11.53125 19.429688 11.699219 C 19.015625 11.871094 18.75 12.175781 18.84375 12.390625 Z M 18.84375 12.390625 " fill-opacity="1" fill-rule="nonzero"/>
   <pathclass="sg" d="M 17.640625 13.378906 C 17.996094 13.230469 18.214844 12.941406 18.128906 12.734375 C 18.042969 12.53125 17.6875 12.480469 17.328125 12.628906 C 16.972656 12.777344 16.753906 13.066406 16.835938 13.269531 C 16.917969 13.476562 17.285156 13.527344 17.640625 13.378906 Z M 17.640625 13.378906 " fill-opacity="1" fill-rule="nonzero"/>
   <pathclass="sg" d="M 21.921875 11.554688 C 22.277344 11.40625 22.496094 11.121094 22.410156 10.914062 C 22.324219 10.710938 21.96875 10.660156 21.609375 10.808594 C 21.253906 10.957031 21.035156 11.242188 21.117188 11.449219 C 21.203125 11.652344 21.566406 11.703125 21.921875 11.554688 Z M 21.921875 11.554688 " fill-opacity="1" fill-rule="nonzero"/>
   <pathclass="sg" d="M 18.441406 11.980469 C 18.796875 11.832031 19.015625 11.546875 18.929688 11.339844 C 18.84375 11.136719 18.488281 11.085938 18.128906 11.234375 C 17.773438 11.382812 17.554688 11.667969 17.636719 11.875 C 17.726562 12.078125 18.085938 12.132812 18.441406 11.980469 Z M 18.441406 11.980469 " fill-opacity="1" fill-rule="nonzero"/>
   <pathclass="sg" d="M 18.742188 12.871094 C 18.386719 13.019531 18.164062 13.304688 18.246094 13.511719 C 18.328125 13.714844 18.691406 13.769531 19.046875 13.617188 C 19.402344 13.46875 19.625 13.183594 19.535156 12.976562 C 19.457031 12.773438 19.097656 12.722656 18.742188 12.871094 Z M 18.742188 12.871094 " fill-opacity="1" fill-rule="nonzero"/>
   <pathclass="sg" d="M 20.632812 12.089844 C 20.277344 12.238281 20.054688 12.527344 20.136719 12.730469 C 20.21875 12.9375 20.582031 12.988281 20.9375 12.839844 C 21.292969 12.691406 21.515625 12.402344 21.425781 12.199219 C 21.347656 11.988281 20.988281 11.941406 20.632812 12.089844 Z M 20.632812 12.089844 " fill-opacity="1" fill-rule="nonzero"/>
   <pathclass="sg" d="M 20.378906 11.128906 C 20.734375 10.980469 20.953125 10.695312 20.867188 10.488281 C 20.78125 10.285156 20.421875 10.234375 20.066406 10.382812 C 19.710938 10.53125 19.492188 10.816406 19.574219 11.023438 C 19.664062 11.226562 20.019531 11.277344 20.378906 11.128906 Z M 20.378906 11.128906 " fill-opacity="1" fill-rule="nonzero"/>
   <g clip-path="url(#5502ffce28)">
      <pathclass="sg" d="M 2.980469 24.625 L 8.222656 24.625 L 8.222656 26.957031 L 2.980469 26.957031 Z M 2.980469 24.625 " fill-opacity="1" fill-rule="nonzero"/>
   </g>
   <g clip-path="url(#980b5ff0ab)">
      <pathclass="sg" d="M 8.925781 17.824219 L 2.28125 17.824219 C 2.171875 17.824219 2.085938 17.914062 2.085938 18.019531 L 2.085938 22.675781 C 2.085938 22.78125 2.171875 22.871094 2.28125 22.871094 L 4.960938 22.871094 L 4.960938 23.757812 L 2.28125 23.757812 C 2.171875 23.757812 2.085938 23.84375 2.085938 23.953125 L 2.085938 32.472656 C 2.085938 32.582031 2.171875 32.667969 2.28125 32.667969 L 3.023438 32.667969 L 3.023438 33.074219 L 2.28125 33.074219 C 2.171875 33.074219 2.085938 33.160156 2.085938 33.269531 L 2.085938 34.757812 C 2.085938 34.867188 2.171875 34.953125 2.28125 34.953125 L 8.929688 34.953125 C 9.039062 34.953125 9.125 34.867188 9.125 34.757812 L 9.125 33.269531 C 9.125 33.160156 9.039062 33.074219 8.929688 33.074219 L 8.1875 33.074219 L 8.1875 32.667969 L 8.929688 32.667969 C 9.039062 32.667969 9.125 32.582031 9.125 32.472656 L 9.125 23.945312 C 9.125 23.839844 9.039062 23.753906 8.929688 23.753906 L 6.253906 23.753906 L 6.253906 22.863281 L 8.929688 22.863281 C 9.039062 22.863281 9.125 22.777344 9.125 22.667969 L 9.125 18.015625 C 9.121094 17.914062 9.03125 17.824219 8.925781 17.824219 Z M 8.738281 33.449219 L 8.738281 34.550781 L 2.46875 34.550781 L 2.46875 33.449219 Z M 8.738281 24.136719 L 8.738281 32.273438 L 2.46875 32.273438 L 2.46875 24.136719 Z M 8.738281 22.480469 L 2.46875 22.480469 L 2.46875 18.210938 L 8.738281 18.210938 Z M 8.738281 22.480469 " fill-opacity="1" fill-rule="nonzero"/>
   </g>
   <g clip-path="url(#bd99da41f2)">
      <pathclass="sg" d="M 2.832031 20.171875 L 8.378906 20.171875 L 8.378906 20.386719 L 2.832031 20.386719 Z M 2.832031 20.171875 " fill-opacity="1" fill-rule="nonzero"/>
   </g>
   <g clip-path="url(#a32d756612)">
      <pathclass="sg" d="M 3.484375 19.617188 C 3.5 19.617188 3.507812 19.605469 3.511719 19.597656 L 3.660156 19.222656 L 3.792969 19.84375 C 3.800781 19.859375 3.808594 19.867188 3.824219 19.867188 C 3.835938 19.867188 3.855469 19.863281 3.859375 19.847656 L 3.972656 19.566406 L 4.09375 19.910156 C 4.101562 19.925781 4.109375 19.929688 4.125 19.929688 C 4.140625 19.925781 4.15625 19.917969 4.15625 19.902344 L 4.363281 19.175781 L 4.492188 19.554688 C 4.496094 19.566406 4.507812 19.574219 4.523438 19.574219 C 4.53125 19.574219 4.546875 19.570312 4.554688 19.558594 L 4.792969 19.160156 L 4.863281 19.804688 C 4.863281 19.820312 4.875 19.832031 4.882812 19.832031 C 4.894531 19.835938 4.910156 19.832031 4.921875 19.828125 L 5.246094 19.507812 L 5.832031 19.507812 L 5.914062 19.863281 C 5.917969 19.878906 5.929688 19.886719 5.945312 19.886719 C 5.960938 19.886719 5.96875 19.878906 5.976562 19.863281 L 6.167969 19.257812 L 6.296875 19.820312 C 6.300781 19.835938 6.3125 19.847656 6.328125 19.847656 C 6.34375 19.847656 6.359375 19.835938 6.359375 19.820312 L 6.519531 19.191406 L 6.617188 19.574219 C 6.621094 19.589844 6.632812 19.601562 6.648438 19.601562 L 7.523438 19.601562 C 7.535156 19.601562 7.550781 19.597656 7.554688 19.585938 L 7.738281 19.246094 L 7.808594 19.8125 C 7.808594 19.828125 7.820312 19.835938 7.835938 19.84375 C 7.851562 19.847656 7.859375 19.835938 7.871094 19.828125 L 8.085938 19.507812 L 8.367188 19.507812 C 8.386719 19.507812 8.402344 19.492188 8.402344 19.472656 C 8.402344 19.453125 8.386719 19.4375 8.367188 19.4375 L 8.066406 19.4375 C 8.054688 19.4375 8.042969 19.441406 8.039062 19.453125 L 7.867188 19.714844 L 7.789062 19.132812 C 7.789062 19.117188 7.773438 19.109375 7.765625 19.105469 C 7.75 19.097656 7.734375 19.109375 7.726562 19.117188 L 7.503906 19.535156 L 6.671875 19.535156 L 6.550781 19.046875 C 6.546875 19.03125 6.535156 19.023438 6.519531 19.023438 C 6.503906 19.023438 6.488281 19.03125 6.488281 19.046875 L 6.328125 19.667969 L 6.203125 19.117188 C 6.199219 19.105469 6.1875 19.09375 6.175781 19.09375 C 6.160156 19.09375 6.148438 19.105469 6.144531 19.117188 L 5.949219 19.722656 L 5.898438 19.476562 C 5.894531 19.460938 5.882812 19.453125 5.867188 19.453125 L 5.242188 19.453125 C 5.230469 19.453125 5.226562 19.457031 5.214844 19.460938 L 4.929688 19.746094 L 4.855469 19.074219 C 4.855469 19.058594 4.84375 19.046875 4.828125 19.042969 C 4.8125 19.035156 4.796875 19.046875 4.792969 19.058594 L 4.53125 19.476562 L 4.394531 19.0625 C 4.390625 19.046875 4.378906 19.042969 4.363281 19.042969 C 4.347656 19.035156 4.335938 19.050781 4.335938 19.066406 L 4.121094 19.796875 L 4.003906 19.460938 C 3.996094 19.449219 3.988281 19.441406 3.972656 19.441406 C 3.957031 19.441406 3.945312 19.453125 3.941406 19.460938 L 3.839844 19.722656 L 3.707031 19.105469 C 3.703125 19.089844 3.691406 19.078125 3.675781 19.078125 C 3.660156 19.078125 3.644531 19.082031 3.640625 19.097656 L 3.460938 19.554688 L 2.832031 19.554688 C 2.808594 19.554688 2.796875 19.570312 2.796875 19.589844 C 2.796875 19.613281 2.808594 19.625 2.832031 19.625 L 3.484375 19.625 Z M 3.484375 19.617188 " fill-opacity="1" fill-rule="nonzero"/>
   </g>
   <g clip-path="url(#22ac216349)">
      <pathclass="sg" d="M 3.109375 21.238281 L 3.324219 21.554688 C 3.332031 21.566406 3.34375 21.578125 3.359375 21.570312 C 3.375 21.566406 3.386719 21.554688 3.386719 21.539062 L 3.457031 20.976562 L 3.640625 21.316406 C 3.644531 21.324219 3.65625 21.332031 3.671875 21.332031 L 4.546875 21.332031 C 4.5625 21.332031 4.578125 21.320312 4.578125 21.304688 L 4.675781 20.917969 L 4.839844 21.550781 C 4.84375 21.566406 4.855469 21.578125 4.871094 21.578125 C 4.882812 21.578125 4.898438 21.566406 4.898438 21.550781 L 5.027344 20.988281 L 5.222656 21.59375 C 5.226562 21.605469 5.234375 21.617188 5.25 21.617188 C 5.265625 21.617188 5.277344 21.605469 5.28125 21.59375 L 5.363281 21.238281 L 5.949219 21.238281 L 6.277344 21.554688 C 6.285156 21.566406 6.300781 21.566406 6.3125 21.5625 C 6.320312 21.554688 6.332031 21.546875 6.332031 21.535156 L 6.402344 20.890625 L 6.644531 21.289062 C 6.648438 21.300781 6.664062 21.304688 6.671875 21.304688 C 6.6875 21.304688 6.699219 21.292969 6.703125 21.285156 L 6.832031 20.90625 L 7.039062 21.632812 C 7.046875 21.648438 7.0625 21.652344 7.070312 21.660156 C 7.085938 21.660156 7.097656 21.648438 7.101562 21.636719 L 7.222656 21.292969 L 7.335938 21.578125 C 7.339844 21.59375 7.355469 21.597656 7.371094 21.597656 C 7.386719 21.597656 7.398438 21.585938 7.402344 21.570312 L 7.535156 20.949219 L 7.683594 21.324219 C 7.6875 21.339844 7.699219 21.347656 7.714844 21.347656 L 8.367188 21.347656 C 8.386719 21.347656 8.402344 21.332031 8.402344 21.308594 C 8.402344 21.289062 8.386719 21.273438 8.367188 21.273438 L 7.738281 21.273438 L 7.558594 20.816406 C 7.554688 20.800781 7.539062 20.796875 7.523438 20.796875 C 7.507812 20.796875 7.5 20.808594 7.492188 20.824219 L 7.363281 21.441406 L 7.257812 21.179688 C 7.253906 21.167969 7.246094 21.160156 7.230469 21.160156 C 7.214844 21.160156 7.203125 21.171875 7.199219 21.179688 L 7.082031 21.515625 L 6.867188 20.785156 C 6.863281 20.769531 6.851562 20.761719 6.835938 20.761719 C 6.820312 20.761719 6.8125 20.769531 6.804688 20.78125 L 6.667969 21.195312 L 6.414062 20.777344 C 6.410156 20.765625 6.394531 20.753906 6.378906 20.761719 C 6.363281 20.765625 6.351562 20.777344 6.351562 20.792969 L 6.277344 21.464844 L 5.992188 21.179688 C 5.984375 21.175781 5.976562 21.171875 5.964844 21.171875 L 5.339844 21.171875 C 5.324219 21.171875 5.308594 21.179688 5.308594 21.195312 L 5.246094 21.453125 L 5.054688 20.847656 C 5.046875 20.832031 5.039062 20.824219 5.023438 20.824219 C 5.007812 20.824219 4.996094 20.832031 4.992188 20.847656 L 4.871094 21.398438 L 4.707031 20.777344 C 4.699219 20.761719 4.691406 20.75 4.675781 20.75 C 4.660156 20.75 4.644531 20.761719 4.644531 20.777344 L 4.523438 21.261719 L 3.6875 21.261719 L 3.460938 20.847656 C 3.457031 20.835938 3.441406 20.828125 3.425781 20.832031 C 3.410156 20.835938 3.402344 20.847656 3.402344 20.863281 L 3.324219 21.441406 L 3.152344 21.179688 C 3.148438 21.175781 3.136719 21.171875 3.125 21.171875 L 2.832031 21.171875 C 2.808594 21.171875 2.796875 21.1875 2.796875 21.207031 C 2.796875 21.226562 2.808594 21.242188 2.832031 21.242188 L 3.109375 21.242188 Z M 3.109375 21.238281 " fill-opacity="1" fill-rule="nonzero"/>
   </g>
   <g clip-path="url(#dcd1aa001a)">
      <pathclass="sg" d="M 28.230469 11.808594 C 29.070312 12.15625 29.898438 12.324219 30.601562 12.324219 C 31.535156 12.324219 32.246094 12.023438 32.488281 11.4375 C 32.558594 11.269531 32.539062 11.015625 32.566406 10.878906 C 32.695312 10.292969 32.433594 9.601562 31.695312 8.949219 C 31.804688 8.484375 31.792969 8.003906 31.660156 7.570312 C 31.574219 7.28125 31.4375 7.03125 31.257812 6.820312 C 31.300781 6.621094 31.25 6.40625 31.089844 6.25 C 31.078125 6.242188 31.066406 6.234375 31.054688 6.226562 L 31.054688 1.914062 L 30.542969 1.914062 L 30.542969 6.082031 C 30.433594 6.097656 30.332031 6.136719 30.238281 6.214844 C 29.394531 6.046875 28.476562 6.507812 27.933594 7.363281 C 27.023438 7.296875 26.382812 7.578125 25.984375 7.953125 C 25.78125 8.148438 25.558594 8.292969 25.464844 8.527344 C 25.253906 9.042969 25.449219 9.667969 26 10.300781 C 26.519531 10.894531 27.3125 11.429688 28.230469 11.808594 Z M 30.421875 6.667969 C 30.835938 6.835938 31.144531 7.195312 31.292969 7.683594 C 31.390625 7.996094 31.40625 8.335938 31.355469 8.671875 C 30.949219 8.363281 30.453125 8.082031 29.902344 7.855469 C 29.378906 7.636719 28.851562 7.492188 28.367188 7.414062 C 28.894531 6.707031 29.722656 6.375 30.421875 6.667969 Z M 25.820312 8.679688 C 25.992188 8.253906 26.570312 8.03125 27.335938 8.03125 C 27.992188 8.03125 28.78125 8.191406 29.570312 8.519531 C 30.1875 8.773438 30.738281 9.105469 31.183594 9.472656 C 31.1875 9.472656 31.191406 9.476562 31.195312 9.476562 C 31.371094 9.628906 31.527344 9.777344 31.664062 9.929688 C 32.109375 10.433594 32.28125 10.929688 32.136719 11.292969 C 31.808594 12.089844 30.085938 12.160156 28.375 11.453125 C 27.511719 11.09375 26.769531 10.589844 26.285156 10.042969 C 25.839844 9.535156 25.671875 9.035156 25.820312 8.679688 Z M 25.820312 8.679688 " fill-opacity="1" fill-rule="nonzero"/>
   </g>
   <pathclass="sg" d="M 28.183594 9.785156 C 28.097656 9.996094 28.359375 10.308594 28.769531 10.480469 C 29.183594 10.648438 29.585938 10.617188 29.671875 10.402344 C 29.761719 10.191406 29.496094 9.878906 29.082031 9.710938 C 28.667969 9.539062 28.273438 9.574219 28.183594 9.785156 Z M 28.183594 9.785156 " fill-opacity="1" fill-rule="nonzero"/>
   <pathclass="sg" d="M 30.382812 10.75 C 30.296875 10.957031 30.519531 11.25 30.871094 11.390625 C 31.226562 11.539062 31.585938 11.488281 31.671875 11.285156 C 31.757812 11.078125 31.535156 10.792969 31.175781 10.644531 C 30.824219 10.496094 30.46875 10.539062 30.382812 10.75 Z M 30.382812 10.75 " fill-opacity="1" fill-rule="nonzero"/>
   <pathclass="sg" d="M 27.394531 9.464844 C 27.480469 9.257812 27.257812 8.96875 26.902344 8.820312 C 26.542969 8.671875 26.1875 8.722656 26.101562 8.929688 C 26.015625 9.132812 26.238281 9.425781 26.589844 9.570312 C 26.953125 9.714844 27.308594 9.667969 27.394531 9.464844 Z M 27.394531 9.464844 " fill-opacity="1" fill-rule="nonzero"/>
   <pathclass="sg" d="M 30.074219 9.996094 C 30.433594 10.144531 30.789062 10.09375 30.875 9.890625 C 30.960938 9.683594 30.738281 9.394531 30.382812 9.246094 C 30.023438 9.097656 29.667969 9.148438 29.582031 9.355469 C 29.496094 9.558594 29.71875 9.847656 30.074219 9.996094 Z M 30.074219 9.996094 " fill-opacity="1" fill-rule="nonzero"/>
   <pathclass="sg" d="M 29.773438 10.882812 C 29.417969 10.734375 29.0625 10.785156 28.976562 10.992188 C 28.886719 11.195312 29.113281 11.488281 29.464844 11.632812 C 29.816406 11.777344 30.179688 11.730469 30.265625 11.527344 C 30.351562 11.320312 30.132812 11.03125 29.773438 10.882812 Z M 29.773438 10.882812 " fill-opacity="1" fill-rule="nonzero"/>
   <pathclass="sg" d="M 27.882812 10.105469 C 27.527344 9.957031 27.171875 10.007812 27.085938 10.210938 C 26.996094 10.417969 27.222656 10.710938 27.574219 10.851562 C 27.929688 11.003906 28.285156 10.949219 28.375 10.746094 C 28.460938 10.539062 28.242188 10.246094 27.882812 10.105469 Z M 27.882812 10.105469 " fill-opacity="1" fill-rule="nonzero"/>
   <pathclass="sg" d="M 28.140625 9.144531 C 28.496094 9.292969 28.851562 9.242188 28.9375 9.035156 C 29.027344 8.832031 28.800781 8.542969 28.445312 8.394531 C 28.089844 8.246094 27.730469 8.296875 27.644531 8.503906 C 27.558594 8.707031 27.78125 8.996094 28.140625 9.144531 Z M 28.140625 9.144531 " fill-opacity="1" fill-rule="nonzero"/>
</svg>