<svg xmlns="http://www.w3.org/2000/svg" xmlns:xlink="http://www.w3.org/1999/xlink" width="50" zoomAndPan="magnify" viewBox="0 0 37.5 37.499999" height="40" preserveAspectRatio="xMidYMid meet" version="1.0">
   <defs>
      <clipPath id="649b975919">
         <path d="M 0 0 L 37.007812 0 L 37.007812 37.007812 L 0 37.007812 Z M 0 0 " clip-rule="nonzero"/>
      </clipPath>
      <clipPath id="e22688ea89">
         <path d="M 16.933594 11.285156 L 32.476562 11.285156 L 32.476562 22 L 16.933594 22 Z M 16.933594 11.285156 " clip-rule="nonzero"/>
      </clipPath>
      <clipPath id="f79070c7e8">
         <path d="M 23 20 L 26 20 L 26 23.128906 L 23 23.128906 Z M 23 20 " clip-rule="nonzero"/>
      </clipPath>
      <clipPath id="f8bd5c1d23">
         <path d="M 1.570312 1.613281 L 35.617188 1.613281 L 35.617188 35.660156 L 1.570312 35.660156 Z M 1.570312 1.613281 " clip-rule="nonzero"/>
      </clipPath>
   </defs>
   <g clip-path="url(#649b975919)">
      <path fill="transparent" d="M 0 0 L 37.007812 0 L 37.007812 37.007812 L 0 37.007812 Z M 0 0 " fill-opacity="1" fill-rule="nonzero"/>
      <path fill="transparent" d="M 0 0 L 37.007812 0 L 37.007812 37.007812 L 0 37.007812 Z M 0 0 " fill-opacity="1" fill-rule="nonzero"/>
   </g>
   <path fill="#100f0d" d="M 21.59375 14.742188 C 21.546875 14.703125 21.523438 14.652344 21.523438 14.585938 L 21.523438 14.136719 C 21.523438 14.070312 21.546875 14.019531 21.59375 13.984375 C 21.644531 13.949219 21.714844 13.929688 21.804688 13.929688 C 21.898438 13.929688 21.96875 13.949219 22.015625 13.984375 C 22.0625 14.019531 22.089844 14.070312 22.089844 14.136719 L 22.089844 14.226562 L 21.90625 14.226562 L 21.90625 14.128906 C 21.90625 14.074219 21.875 14.050781 21.8125 14.050781 C 21.746094 14.050781 21.714844 14.074219 21.714844 14.128906 L 21.714844 14.597656 C 21.714844 14.648438 21.746094 14.675781 21.8125 14.675781 C 21.875 14.675781 21.90625 14.648438 21.90625 14.597656 L 21.90625 14.46875 L 22.089844 14.46875 L 22.089844 14.585938 C 22.089844 14.652344 22.0625 14.703125 22.015625 14.742188 C 21.96875 14.777344 21.898438 14.792969 21.804688 14.792969 C 21.714844 14.792969 21.644531 14.777344 21.59375 14.742188 " fill-opacity="1" fill-rule="nonzero"/>
   <path fill="#100f0d" d="M 21.804688 13.941406 C 21.714844 13.941406 21.648438 13.957031 21.601562 13.992188 C 21.558594 14.027344 21.535156 14.074219 21.535156 14.136719 L 21.535156 14.585938 C 21.535156 14.648438 21.558594 14.695312 21.601562 14.730469 C 21.648438 14.765625 21.714844 14.78125 21.804688 14.78125 C 21.894531 14.78125 21.960938 14.765625 22.007812 14.730469 C 22.054688 14.695312 22.078125 14.648438 22.078125 14.585938 L 22.078125 14.480469 L 21.917969 14.480469 L 21.917969 14.597656 C 21.917969 14.636719 21.898438 14.6875 21.8125 14.6875 C 21.722656 14.6875 21.703125 14.636719 21.703125 14.597656 L 21.703125 14.128906 C 21.703125 14.085938 21.722656 14.039062 21.8125 14.039062 C 21.898438 14.039062 21.917969 14.085938 21.917969 14.128906 L 21.917969 14.214844 L 22.078125 14.214844 L 22.078125 14.136719 C 22.078125 14.074219 22.054688 14.027344 22.007812 13.992188 C 21.960938 13.957031 21.894531 13.941406 21.804688 13.941406 Z M 21.804688 14.804688 C 21.710938 14.804688 21.636719 14.789062 21.589844 14.75 C 21.539062 14.710938 21.511719 14.65625 21.511719 14.585938 L 21.511719 14.136719 C 21.511719 14.066406 21.539062 14.011719 21.589844 13.972656 C 21.636719 13.9375 21.710938 13.917969 21.804688 13.917969 C 21.898438 13.917969 21.972656 13.9375 22.023438 13.972656 C 22.074219 14.011719 22.101562 14.066406 22.101562 14.136719 L 22.101562 14.238281 L 21.894531 14.238281 L 21.894531 14.128906 C 21.894531 14.097656 21.886719 14.0625 21.8125 14.0625 C 21.734375 14.0625 21.726562 14.097656 21.726562 14.128906 L 21.726562 14.597656 C 21.726562 14.625 21.734375 14.664062 21.8125 14.664062 C 21.886719 14.664062 21.894531 14.625 21.894531 14.597656 L 21.894531 14.457031 L 22.101562 14.457031 L 22.101562 14.585938 C 22.101562 14.65625 22.074219 14.710938 22.023438 14.75 C 21.972656 14.789062 21.898438 14.804688 21.804688 14.804688 " fill-opacity="1" fill-rule="nonzero"/>
   <path fill="#100f0d" d="M 22.203125 13.941406 L 22.726562 13.941406 L 22.726562 14.0625 L 22.394531 14.0625 L 22.394531 14.285156 L 22.660156 14.285156 L 22.660156 14.402344 L 22.394531 14.402344 L 22.394531 14.664062 L 22.726562 14.664062 L 22.726562 14.78125 L 22.203125 14.78125 L 22.203125 13.941406 " fill-opacity="1" fill-rule="nonzero"/>
   <path fill="#100f0d" d="M 22.214844 14.769531 L 22.714844 14.769531 L 22.714844 14.675781 L 22.382812 14.675781 L 22.382812 14.390625 L 22.648438 14.390625 L 22.648438 14.296875 L 22.382812 14.296875 L 22.382812 14.050781 L 22.714844 14.050781 L 22.714844 13.953125 L 22.214844 13.953125 Z M 22.738281 14.792969 L 22.191406 14.792969 L 22.191406 13.929688 L 22.738281 13.929688 L 22.738281 14.074219 L 22.40625 14.074219 L 22.40625 14.273438 L 22.671875 14.273438 L 22.671875 14.417969 L 22.40625 14.417969 L 22.40625 14.652344 L 22.738281 14.652344 L 22.738281 14.792969 " fill-opacity="1" fill-rule="nonzero"/>
   <path fill="#100f0d" d="M 23.097656 14.300781 C 23.136719 14.300781 23.164062 14.296875 23.183594 14.28125 C 23.203125 14.269531 23.214844 14.246094 23.214844 14.214844 L 23.214844 14.148438 C 23.214844 14.117188 23.203125 14.09375 23.1875 14.082031 C 23.171875 14.070312 23.148438 14.0625 23.113281 14.0625 L 23.027344 14.0625 L 23.027344 14.300781 Z M 22.835938 13.941406 L 23.121094 13.941406 C 23.21875 13.941406 23.292969 13.957031 23.335938 13.988281 C 23.382812 14.019531 23.40625 14.070312 23.40625 14.136719 L 23.40625 14.1875 C 23.40625 14.273438 23.363281 14.328125 23.277344 14.351562 L 23.277344 14.355469 C 23.324219 14.363281 23.359375 14.382812 23.378906 14.414062 C 23.398438 14.441406 23.40625 14.484375 23.40625 14.53125 L 23.40625 14.679688 C 23.40625 14.703125 23.40625 14.722656 23.410156 14.738281 C 23.414062 14.753906 23.417969 14.769531 23.425781 14.78125 L 23.230469 14.78125 C 23.226562 14.769531 23.21875 14.757812 23.21875 14.742188 C 23.214844 14.730469 23.214844 14.710938 23.214844 14.679688 L 23.214844 14.527344 C 23.214844 14.488281 23.207031 14.460938 23.1875 14.445312 C 23.167969 14.429688 23.136719 14.421875 23.09375 14.421875 L 23.027344 14.421875 L 23.027344 14.78125 L 22.835938 14.78125 L 22.835938 13.941406 " fill-opacity="1" fill-rule="nonzero"/>
   <path fill="#100f0d" d="M 23.039062 14.289062 L 23.097656 14.289062 C 23.132812 14.289062 23.160156 14.285156 23.175781 14.273438 C 23.195312 14.261719 23.199219 14.242188 23.199219 14.214844 L 23.199219 14.148438 C 23.199219 14.121094 23.195312 14.101562 23.183594 14.089844 C 23.167969 14.078125 23.144531 14.074219 23.113281 14.074219 L 23.039062 14.074219 Z M 23.097656 14.3125 L 23.015625 14.3125 L 23.015625 14.050781 L 23.113281 14.050781 C 23.152344 14.050781 23.179688 14.058594 23.195312 14.074219 C 23.214844 14.089844 23.226562 14.113281 23.226562 14.148438 L 23.226562 14.214844 C 23.226562 14.25 23.214844 14.277344 23.191406 14.292969 C 23.167969 14.304688 23.140625 14.3125 23.097656 14.3125 Z M 23.238281 14.769531 L 23.40625 14.769531 C 23.402344 14.761719 23.398438 14.75 23.398438 14.742188 C 23.394531 14.726562 23.394531 14.707031 23.394531 14.679688 L 23.394531 14.53125 C 23.394531 14.484375 23.386719 14.449219 23.367188 14.421875 C 23.351562 14.394531 23.320312 14.375 23.277344 14.367188 L 23.265625 14.363281 L 23.265625 14.34375 L 23.277344 14.339844 C 23.355469 14.320312 23.394531 14.269531 23.394531 14.1875 L 23.394531 14.136719 C 23.394531 14.074219 23.371094 14.027344 23.332031 14 C 23.285156 13.96875 23.214844 13.953125 23.121094 13.953125 L 22.847656 13.953125 L 22.847656 14.769531 L 23.015625 14.769531 L 23.015625 14.410156 L 23.09375 14.410156 C 23.140625 14.410156 23.175781 14.417969 23.195312 14.4375 C 23.214844 14.453125 23.226562 14.484375 23.226562 14.527344 L 23.226562 14.679688 C 23.226562 14.710938 23.226562 14.730469 23.230469 14.742188 C 23.230469 14.75 23.234375 14.761719 23.238281 14.769531 Z M 23.449219 14.792969 L 23.226562 14.792969 L 23.222656 14.789062 C 23.214844 14.773438 23.210938 14.757812 23.207031 14.746094 C 23.203125 14.734375 23.203125 14.710938 23.203125 14.679688 L 23.203125 14.527344 C 23.203125 14.492188 23.195312 14.46875 23.179688 14.453125 C 23.164062 14.441406 23.136719 14.433594 23.09375 14.433594 L 23.039062 14.433594 L 23.039062 14.792969 L 22.824219 14.792969 L 22.824219 13.929688 L 23.121094 13.929688 C 23.222656 13.929688 23.296875 13.945312 23.34375 13.980469 C 23.390625 14.011719 23.417969 14.066406 23.417969 14.136719 L 23.417969 14.1875 C 23.417969 14.265625 23.382812 14.324219 23.316406 14.351562 C 23.347656 14.363281 23.371094 14.382812 23.386719 14.40625 C 23.40625 14.4375 23.417969 14.480469 23.417969 14.53125 L 23.417969 14.679688 C 23.417969 14.703125 23.417969 14.722656 23.421875 14.738281 C 23.421875 14.75 23.429688 14.761719 23.4375 14.777344 L 23.449219 14.792969 " fill-opacity="1" fill-rule="nonzero"/>
   <path fill="#100f0d" d="M 23.6875 14.0625 L 23.484375 14.0625 L 23.484375 13.941406 L 24.078125 13.941406 L 24.078125 14.0625 L 23.878906 14.0625 L 23.878906 14.78125 L 23.6875 14.78125 L 23.6875 14.0625 " fill-opacity="1" fill-rule="nonzero"/>
   <path fill="#100f0d" d="M 23.695312 14.769531 L 23.867188 14.769531 L 23.867188 14.050781 L 24.066406 14.050781 L 24.066406 13.953125 L 23.496094 13.953125 L 23.496094 14.050781 L 23.695312 14.050781 Z M 23.890625 14.792969 L 23.671875 14.792969 L 23.671875 14.074219 L 23.472656 14.074219 L 23.472656 13.929688 L 24.089844 13.929688 L 24.089844 14.074219 L 23.890625 14.074219 L 23.890625 14.792969 " fill-opacity="1" fill-rule="nonzero"/>
   <path fill="#100f0d" d="M 24.171875 13.941406 L 24.363281 13.941406 L 24.363281 14.78125 L 24.171875 14.78125 L 24.171875 13.941406 " fill-opacity="1" fill-rule="nonzero"/>
   <path fill="#100f0d" d="M 24.183594 14.769531 L 24.351562 14.769531 L 24.351562 13.953125 L 24.183594 13.953125 Z M 24.375 14.792969 L 24.160156 14.792969 L 24.160156 13.929688 L 24.375 13.929688 L 24.375 14.792969 " fill-opacity="1" fill-rule="nonzero"/>
   <path fill="#100f0d" d="M 24.503906 13.941406 L 25.011719 13.941406 L 25.011719 14.0625 L 24.695312 14.0625 L 24.695312 14.296875 L 24.945312 14.296875 L 24.945312 14.417969 L 24.695312 14.417969 L 24.695312 14.78125 L 24.503906 14.78125 L 24.503906 13.941406 " fill-opacity="1" fill-rule="nonzero"/>
   <path fill="#100f0d" d="M 24.515625 14.769531 L 24.683594 14.769531 L 24.683594 14.402344 L 24.933594 14.402344 L 24.933594 14.308594 L 24.683594 14.308594 L 24.683594 14.050781 L 25 14.050781 L 25 13.953125 L 24.515625 13.953125 Z M 24.707031 14.792969 L 24.492188 14.792969 L 24.492188 13.929688 L 25.023438 13.929688 L 25.023438 14.074219 L 24.707031 14.074219 L 24.707031 14.285156 L 24.957031 14.285156 L 24.957031 14.429688 L 24.707031 14.429688 L 24.707031 14.792969 " fill-opacity="1" fill-rule="nonzero"/>
   <path fill="#100f0d" d="M 25.105469 13.941406 L 25.296875 13.941406 L 25.296875 14.78125 L 25.105469 14.78125 L 25.105469 13.941406 " fill-opacity="1" fill-rule="nonzero"/>
   <path fill="#100f0d" d="M 25.117188 14.769531 L 25.285156 14.769531 L 25.285156 13.953125 L 25.117188 13.953125 Z M 25.308594 14.792969 L 25.09375 14.792969 L 25.09375 13.929688 L 25.308594 13.929688 L 25.308594 14.792969 " fill-opacity="1" fill-rule="nonzero"/>
   <path fill="#100f0d" d="M 25.5 14.742188 C 25.453125 14.703125 25.429688 14.652344 25.429688 14.585938 L 25.429688 14.136719 C 25.429688 14.070312 25.453125 14.019531 25.5 13.984375 C 25.546875 13.949219 25.617188 13.929688 25.710938 13.929688 C 25.800781 13.929688 25.871094 13.949219 25.921875 13.984375 C 25.96875 14.019531 25.992188 14.070312 25.992188 14.136719 L 25.992188 14.226562 L 25.8125 14.226562 L 25.8125 14.128906 C 25.8125 14.074219 25.78125 14.050781 25.714844 14.050781 C 25.652344 14.050781 25.621094 14.074219 25.621094 14.128906 L 25.621094 14.597656 C 25.621094 14.648438 25.652344 14.675781 25.714844 14.675781 C 25.78125 14.675781 25.8125 14.648438 25.8125 14.597656 L 25.8125 14.46875 L 25.992188 14.46875 L 25.992188 14.585938 C 25.992188 14.652344 25.96875 14.703125 25.921875 14.742188 C 25.871094 14.777344 25.800781 14.792969 25.710938 14.792969 C 25.617188 14.792969 25.546875 14.777344 25.5 14.742188 " fill-opacity="1" fill-rule="nonzero"/>
   <path fill="#100f0d" d="M 25.710938 13.941406 C 25.621094 13.941406 25.554688 13.957031 25.507812 13.992188 C 25.460938 14.027344 25.441406 14.074219 25.441406 14.136719 L 25.441406 14.585938 C 25.441406 14.648438 25.460938 14.695312 25.507812 14.730469 C 25.554688 14.765625 25.621094 14.78125 25.710938 14.78125 C 25.800781 14.78125 25.867188 14.765625 25.914062 14.730469 C 25.960938 14.695312 25.980469 14.648438 25.980469 14.585938 L 25.980469 14.480469 L 25.824219 14.480469 L 25.824219 14.597656 C 25.824219 14.636719 25.804688 14.6875 25.714844 14.6875 C 25.625 14.6875 25.609375 14.636719 25.609375 14.597656 L 25.609375 14.128906 C 25.609375 14.085938 25.625 14.039062 25.714844 14.039062 C 25.804688 14.039062 25.824219 14.085938 25.824219 14.128906 L 25.824219 14.214844 L 25.980469 14.214844 L 25.980469 14.136719 C 25.980469 14.074219 25.960938 14.027344 25.914062 13.992188 C 25.867188 13.957031 25.800781 13.941406 25.710938 13.941406 Z M 25.710938 14.804688 C 25.617188 14.804688 25.542969 14.789062 25.492188 14.75 C 25.441406 14.710938 25.417969 14.65625 25.417969 14.585938 L 25.417969 14.136719 C 25.417969 14.066406 25.441406 14.011719 25.492188 13.972656 C 25.542969 13.9375 25.617188 13.917969 25.710938 13.917969 C 25.804688 13.917969 25.878906 13.9375 25.925781 13.972656 C 25.980469 14.011719 26.003906 14.066406 26.003906 14.136719 L 26.003906 14.238281 L 25.800781 14.238281 L 25.800781 14.128906 C 25.800781 14.097656 25.792969 14.0625 25.714844 14.0625 C 25.640625 14.0625 25.632812 14.097656 25.632812 14.128906 L 25.632812 14.597656 C 25.632812 14.625 25.640625 14.664062 25.714844 14.664062 C 25.792969 14.664062 25.800781 14.625 25.800781 14.597656 L 25.800781 14.457031 L 26.003906 14.457031 L 26.003906 14.585938 C 26.003906 14.65625 25.980469 14.710938 25.925781 14.75 C 25.878906 14.789062 25.804688 14.804688 25.710938 14.804688 " fill-opacity="1" fill-rule="nonzero"/>
   <path fill="#100f0d" d="M 26.464844 14.503906 L 26.378906 14.089844 L 26.375 14.089844 L 26.292969 14.503906 Z M 26.257812 13.941406 L 26.515625 13.941406 L 26.714844 14.78125 L 26.523438 14.78125 L 26.488281 14.617188 L 26.269531 14.617188 L 26.234375 14.78125 L 26.058594 14.78125 L 26.257812 13.941406 " fill-opacity="1" fill-rule="nonzero"/>
   <path fill="#100f0d" d="M 26.308594 14.492188 L 26.449219 14.492188 L 26.378906 14.136719 Z M 26.53125 14.769531 L 26.699219 14.769531 L 26.507812 13.953125 L 26.265625 13.953125 L 26.074219 14.769531 L 26.226562 14.769531 L 26.261719 14.605469 L 26.476562 14.605469 L 26.476562 14.515625 L 26.277344 14.515625 L 26.367188 14.074219 L 26.390625 14.074219 L 26.480469 14.515625 Z M 26.730469 14.792969 L 26.511719 14.792969 L 26.480469 14.628906 L 26.28125 14.628906 L 26.246094 14.792969 L 26.042969 14.792969 L 26.246094 13.929688 L 26.523438 13.929688 L 26.730469 14.792969 " fill-opacity="1" fill-rule="nonzero"/>
   <path fill="#100f0d" d="M 26.878906 14.0625 L 26.675781 14.0625 L 26.675781 13.941406 L 27.269531 13.941406 L 27.269531 14.0625 L 27.070312 14.0625 L 27.070312 14.78125 L 26.878906 14.78125 L 26.878906 14.0625 " fill-opacity="1" fill-rule="nonzero"/>
   <path fill="#100f0d" d="M 26.890625 14.769531 L 27.058594 14.769531 L 27.058594 14.050781 L 27.257812 14.050781 L 27.257812 13.953125 L 26.6875 13.953125 L 26.6875 14.050781 L 26.890625 14.050781 Z M 27.082031 14.792969 L 26.867188 14.792969 L 26.867188 14.074219 L 26.664062 14.074219 L 26.664062 13.929688 L 27.28125 13.929688 L 27.28125 14.074219 L 27.082031 14.074219 L 27.082031 14.792969 " fill-opacity="1" fill-rule="nonzero"/>
   <path fill="#100f0d" d="M 27.363281 13.941406 L 27.886719 13.941406 L 27.886719 14.0625 L 27.554688 14.0625 L 27.554688 14.285156 L 27.816406 14.285156 L 27.816406 14.402344 L 27.554688 14.402344 L 27.554688 14.664062 L 27.886719 14.664062 L 27.886719 14.78125 L 27.363281 14.78125 L 27.363281 13.941406 " fill-opacity="1" fill-rule="nonzero"/>
   <path fill="#100f0d" d="M 27.375 14.769531 L 27.875 14.769531 L 27.875 14.675781 L 27.542969 14.675781 L 27.542969 14.390625 L 27.804688 14.390625 L 27.804688 14.296875 L 27.542969 14.296875 L 27.542969 14.050781 L 27.875 14.050781 L 27.875 13.953125 L 27.375 13.953125 Z M 27.898438 14.792969 L 27.351562 14.792969 L 27.351562 13.929688 L 27.898438 13.929688 L 27.898438 14.074219 L 27.566406 14.074219 L 27.566406 14.273438 L 27.828125 14.273438 L 27.828125 14.417969 L 27.566406 14.417969 L 27.566406 14.652344 L 27.898438 14.652344 L 27.898438 14.792969 " fill-opacity="1" fill-rule="nonzero"/>
   <g clip-path="url(#e22688ea89)">
      <path fill="#100f0d" d="M 24.703125 19.230469 C 24.417969 19.230469 24.1875 19.46875 24.1875 19.761719 C 24.1875 20.054688 24.417969 20.292969 24.703125 20.292969 C 24.988281 20.292969 25.222656 20.054688 25.222656 19.761719 C 25.222656 19.46875 24.988281 19.230469 24.703125 19.230469 Z M 24.703125 20.578125 C 24.265625 20.578125 23.90625 20.210938 23.90625 19.761719 C 23.90625 19.308594 24.265625 18.941406 24.703125 18.941406 C 25.144531 18.941406 25.503906 19.308594 25.503906 19.761719 C 25.503906 20.210938 25.144531 20.578125 24.703125 20.578125 Z M 19.359375 20.601562 C 19.355469 20.601562 19.351562 20.601562 19.351562 20.597656 C 19.273438 20.59375 19.214844 20.523438 19.21875 20.445312 C 19.222656 20.417969 19.222656 20.390625 19.222656 20.363281 C 19.222656 19.726562 18.71875 19.210938 18.097656 19.210938 C 18.019531 19.210938 17.957031 19.144531 17.957031 19.066406 C 17.957031 18.984375 18.019531 18.921875 18.097656 18.921875 C 18.871094 18.921875 19.503906 19.570312 19.503906 20.363281 C 19.503906 20.398438 19.503906 20.433594 19.5 20.464844 C 19.496094 20.542969 19.433594 20.601562 19.359375 20.601562 Z M 25.4375 21.359375 L 32.191406 21.359375 L 32.191406 11.574219 L 17.214844 11.574219 L 17.214844 21.359375 L 23.972656 21.359375 L 23.972656 20.949219 L 23.6875 20.949219 C 23.609375 20.949219 23.546875 20.882812 23.546875 20.804688 L 23.546875 20.253906 L 23.164062 19.863281 C 23.109375 19.804688 23.109375 19.714844 23.164062 19.660156 L 23.546875 19.269531 L 23.546875 18.71875 C 23.546875 18.636719 23.609375 18.574219 23.6875 18.574219 L 24.222656 18.574219 L 24.605469 18.183594 C 24.632812 18.15625 24.667969 18.140625 24.703125 18.140625 C 24.742188 18.140625 24.777344 18.15625 24.804688 18.183594 L 25.183594 18.574219 L 25.722656 18.574219 C 25.800781 18.574219 25.863281 18.636719 25.863281 18.71875 L 25.863281 19.269531 L 26.242188 19.660156 C 26.296875 19.714844 26.296875 19.804688 26.242188 19.863281 L 25.863281 20.253906 L 25.863281 20.804688 C 25.863281 20.882812 25.800781 20.949219 25.722656 20.949219 L 25.4375 20.949219 Z M 32.332031 21.648438 L 25.296875 21.648438 C 25.21875 21.648438 25.15625 21.582031 25.15625 21.503906 L 25.15625 20.804688 C 25.15625 20.722656 25.21875 20.660156 25.296875 20.660156 L 25.582031 20.660156 L 25.582031 20.191406 C 25.582031 20.15625 25.597656 20.117188 25.621094 20.089844 L 25.945312 19.761719 L 25.621094 19.429688 C 25.597656 19.402344 25.582031 19.367188 25.582031 19.328125 L 25.582031 18.863281 L 25.125 18.863281 C 25.089844 18.863281 25.054688 18.847656 25.027344 18.820312 L 24.703125 18.488281 L 24.382812 18.820312 C 24.355469 18.847656 24.320312 18.863281 24.28125 18.863281 L 23.828125 18.863281 L 23.828125 19.328125 C 23.828125 19.367188 23.8125 19.402344 23.785156 19.429688 L 23.464844 19.761719 L 23.785156 20.089844 C 23.8125 20.117188 23.828125 20.15625 23.828125 20.191406 L 23.828125 20.660156 L 24.113281 20.660156 C 24.191406 20.660156 24.253906 20.722656 24.253906 20.804688 L 24.253906 21.503906 C 24.253906 21.582031 24.191406 21.648438 24.113281 21.648438 L 17.074219 21.648438 C 16.996094 21.648438 16.933594 21.582031 16.933594 21.503906 L 16.933594 11.429688 C 16.933594 11.351562 16.996094 11.285156 17.074219 11.285156 L 32.332031 11.285156 C 32.410156 11.285156 32.472656 11.351562 32.472656 11.429688 L 32.472656 21.503906 C 32.472656 21.582031 32.410156 21.648438 32.332031 21.648438 " fill-opacity="1" fill-rule="nonzero"/>
   </g>
   <path fill="#100f0d" d="M 31.3125 19.210938 C 31.234375 19.210938 31.171875 19.144531 31.171875 19.066406 L 31.171875 13.773438 C 31.171875 13.695312 31.234375 13.632812 31.3125 13.632812 C 31.390625 13.632812 31.453125 13.695312 31.453125 13.773438 L 31.453125 19.066406 C 31.453125 19.144531 31.390625 19.210938 31.3125 19.210938 " fill-opacity="1" fill-rule="nonzero"/>
   <path fill="#100f0d" d="M 23.6875 20.601562 L 19.359375 20.601562 C 19.28125 20.601562 19.21875 20.535156 19.21875 20.457031 C 19.21875 20.375 19.28125 20.3125 19.359375 20.3125 L 23.6875 20.3125 C 23.765625 20.3125 23.828125 20.375 23.828125 20.457031 C 23.828125 20.535156 23.765625 20.601562 23.6875 20.601562 " fill-opacity="1" fill-rule="nonzero"/>
   <path fill="#100f0d" d="M 30.046875 20.601562 L 25.722656 20.601562 C 25.644531 20.601562 25.582031 20.535156 25.582031 20.457031 C 25.582031 20.375 25.644531 20.3125 25.722656 20.3125 L 30.046875 20.3125 C 30.125 20.3125 30.1875 20.375 30.1875 20.457031 C 30.1875 20.535156 30.125 20.601562 30.046875 20.601562 " fill-opacity="1" fill-rule="nonzero"/>
   <path fill="#100f0d" d="M 18.097656 19.210938 C 18.019531 19.210938 17.957031 19.144531 17.957031 19.066406 L 17.957031 13.773438 C 17.957031 13.695312 18.019531 13.632812 18.097656 13.632812 C 18.175781 13.632812 18.238281 13.695312 18.238281 13.773438 L 18.238281 19.066406 C 18.238281 19.144531 18.175781 19.210938 18.097656 19.210938 " fill-opacity="1" fill-rule="nonzero"/>
   <path fill="#100f0d" d="M 30.042969 12.621094 L 19.363281 12.621094 C 19.285156 12.621094 19.222656 12.554688 19.222656 12.476562 C 19.222656 12.398438 19.285156 12.332031 19.363281 12.332031 L 30.042969 12.332031 C 30.121094 12.332031 30.183594 12.398438 30.183594 12.476562 C 30.183594 12.554688 30.121094 12.621094 30.042969 12.621094 " fill-opacity="1" fill-rule="nonzero"/>
   <path fill="#100f0d" d="M 29.589844 16.609375 L 19.820312 16.609375 C 19.742188 16.609375 19.679688 16.546875 19.679688 16.464844 C 19.679688 16.386719 19.742188 16.324219 19.820312 16.324219 L 29.589844 16.324219 C 29.667969 16.324219 29.730469 16.386719 29.730469 16.464844 C 29.730469 16.546875 29.667969 16.609375 29.589844 16.609375 " fill-opacity="1" fill-rule="nonzero"/>
   <path fill="#100f0d" d="M 28.246094 17.816406 L 21.160156 17.816406 C 21.082031 17.816406 21.019531 17.753906 21.019531 17.675781 C 21.019531 17.59375 21.082031 17.53125 21.160156 17.53125 L 28.246094 17.53125 C 28.324219 17.53125 28.386719 17.59375 28.386719 17.675781 C 28.386719 17.753906 28.324219 17.816406 28.246094 17.816406 " fill-opacity="1" fill-rule="nonzero"/>
   <path fill="#100f0d" d="M 31.3125 13.917969 C 30.535156 13.917969 29.90625 13.273438 29.90625 12.476562 C 29.90625 12.398438 29.96875 12.332031 30.042969 12.332031 C 30.121094 12.332031 30.183594 12.398438 30.183594 12.476562 C 30.183594 13.113281 30.691406 13.632812 31.3125 13.632812 C 31.390625 13.632812 31.453125 13.695312 31.453125 13.773438 C 31.453125 13.855469 31.390625 13.917969 31.3125 13.917969 " fill-opacity="1" fill-rule="nonzero"/>
   <path fill="#100f0d" d="M 30.046875 20.601562 C 29.976562 20.601562 29.914062 20.542969 29.90625 20.464844 C 29.90625 20.433594 29.90625 20.398438 29.90625 20.363281 C 29.90625 19.570312 30.535156 18.921875 31.3125 18.921875 C 31.390625 18.921875 31.453125 18.984375 31.453125 19.066406 C 31.453125 19.144531 31.390625 19.210938 31.3125 19.210938 C 30.691406 19.210938 30.183594 19.726562 30.183594 20.363281 C 30.183594 20.390625 30.1875 20.417969 30.1875 20.445312 C 30.195312 20.523438 30.136719 20.59375 30.058594 20.597656 C 30.054688 20.601562 30.050781 20.601562 30.046875 20.601562 " fill-opacity="1" fill-rule="nonzero"/>
   <path fill="#100f0d" d="M 18.097656 13.917969 C 18.019531 13.917969 17.957031 13.855469 17.957031 13.773438 C 17.957031 13.695312 18.019531 13.632812 18.097656 13.632812 C 18.71875 13.632812 19.222656 13.113281 19.222656 12.476562 C 19.222656 12.398438 19.285156 12.332031 19.363281 12.332031 C 19.441406 12.332031 19.503906 12.398438 19.503906 12.476562 C 19.503906 13.273438 18.871094 13.917969 18.097656 13.917969 " fill-opacity="1" fill-rule="nonzero"/>
   <path fill="#100f0d" d="M 20.644531 13.46875 C 20.265625 13.46875 19.957031 13.78125 19.957031 14.171875 L 19.957031 14.554688 C 19.957031 14.941406 20.265625 15.257812 20.644531 15.257812 L 28.765625 15.257812 C 29.144531 15.257812 29.449219 14.941406 29.449219 14.554688 L 29.449219 14.171875 C 29.449219 13.78125 29.144531 13.46875 28.765625 13.46875 Z M 28.765625 15.542969 L 20.644531 15.542969 C 20.109375 15.542969 19.675781 15.097656 19.675781 14.554688 L 19.675781 14.171875 C 19.675781 13.625 20.109375 13.179688 20.644531 13.179688 L 28.765625 13.179688 C 29.296875 13.179688 29.730469 13.625 29.730469 14.171875 L 29.730469 14.554688 C 29.730469 15.097656 29.296875 15.542969 28.765625 15.542969 " fill-opacity="1" fill-rule="nonzero"/>
   <path fill="#100f0d" d="M 24.703125 19.230469 C 24.417969 19.230469 24.1875 19.46875 24.1875 19.761719 C 24.1875 20.054688 24.417969 20.292969 24.703125 20.292969 C 24.988281 20.292969 25.222656 20.054688 25.222656 19.761719 C 25.222656 19.46875 24.988281 19.230469 24.703125 19.230469 Z M 24.703125 20.578125 C 24.265625 20.578125 23.90625 20.210938 23.90625 19.761719 C 23.90625 19.308594 24.265625 18.941406 24.703125 18.941406 C 25.144531 18.941406 25.503906 19.308594 25.503906 19.761719 C 25.503906 20.210938 25.144531 20.578125 24.703125 20.578125 Z M 23.828125 20.660156 L 24.28125 20.660156 C 24.320312 20.660156 24.355469 20.675781 24.382812 20.703125 L 24.703125 21.03125 L 25.027344 20.703125 C 25.054688 20.675781 25.089844 20.660156 25.125 20.660156 L 25.582031 20.660156 L 25.582031 20.191406 C 25.582031 20.15625 25.597656 20.117188 25.621094 20.089844 L 25.945312 19.761719 L 25.621094 19.429688 C 25.597656 19.402344 25.582031 19.367188 25.582031 19.328125 L 25.582031 18.863281 L 25.125 18.863281 C 25.089844 18.863281 25.054688 18.847656 25.027344 18.820312 L 24.703125 18.488281 L 24.382812 18.820312 C 24.355469 18.847656 24.320312 18.863281 24.28125 18.863281 L 23.828125 18.863281 L 23.828125 19.328125 C 23.828125 19.367188 23.8125 19.402344 23.785156 19.429688 L 23.464844 19.761719 L 23.785156 20.089844 C 23.8125 20.117188 23.828125 20.15625 23.828125 20.191406 Z M 24.703125 21.378906 C 24.667969 21.378906 24.632812 21.367188 24.605469 21.335938 L 24.222656 20.949219 L 23.6875 20.949219 C 23.609375 20.949219 23.546875 20.882812 23.546875 20.804688 L 23.546875 20.253906 L 23.164062 19.863281 C 23.109375 19.804688 23.109375 19.714844 23.164062 19.660156 L 23.546875 19.269531 L 23.546875 18.71875 C 23.546875 18.636719 23.609375 18.574219 23.6875 18.574219 L 24.222656 18.574219 L 24.605469 18.183594 C 24.632812 18.15625 24.667969 18.140625 24.703125 18.140625 C 24.742188 18.140625 24.777344 18.15625 24.804688 18.183594 L 25.183594 18.574219 L 25.722656 18.574219 C 25.800781 18.574219 25.863281 18.636719 25.863281 18.71875 L 25.863281 19.269531 L 26.242188 19.660156 C 26.296875 19.714844 26.296875 19.804688 26.242188 19.863281 L 25.863281 20.253906 L 25.863281 20.804688 C 25.863281 20.882812 25.800781 20.949219 25.722656 20.949219 L 25.183594 20.949219 L 24.804688 21.335938 C 24.777344 21.367188 24.738281 21.378906 24.703125 21.378906 " fill-opacity="1" fill-rule="nonzero"/>
   <path fill="#100f0d" d="M 24.703125 19.230469 C 24.417969 19.230469 24.1875 19.46875 24.1875 19.761719 C 24.1875 20.054688 24.417969 20.292969 24.703125 20.292969 C 24.988281 20.292969 25.222656 20.054688 25.222656 19.761719 C 25.222656 19.46875 24.988281 19.230469 24.703125 19.230469 Z M 24.703125 20.578125 C 24.265625 20.578125 23.90625 20.210938 23.90625 19.761719 C 23.90625 19.308594 24.265625 18.941406 24.703125 18.941406 C 25.144531 18.941406 25.503906 19.308594 25.503906 19.761719 C 25.503906 20.210938 25.144531 20.578125 24.703125 20.578125 " fill-opacity="1" fill-rule="nonzero"/>
   <path fill="#100f0d" d="M 24.703125 19.230469 C 24.417969 19.230469 24.1875 19.46875 24.1875 19.761719 C 24.1875 20.054688 24.417969 20.292969 24.703125 20.292969 C 24.988281 20.292969 25.222656 20.054688 25.222656 19.761719 C 25.222656 19.46875 24.988281 19.230469 24.703125 19.230469 Z M 24.703125 20.578125 C 24.265625 20.578125 23.90625 20.210938 23.90625 19.761719 C 23.90625 19.308594 24.265625 18.941406 24.703125 18.941406 C 25.144531 18.941406 25.503906 19.308594 25.503906 19.761719 C 25.503906 20.210938 25.144531 20.578125 24.703125 20.578125 " fill-opacity="1" fill-rule="nonzero"/>
   <g clip-path="url(#f79070c7e8)">
      <path fill="#100f0d" d="M 24.703125 22.320312 C 24.734375 22.320312 24.769531 22.332031 24.792969 22.351562 L 25.15625 22.664062 L 25.15625 20.976562 L 24.804688 21.335938 C 24.75 21.394531 24.660156 21.394531 24.605469 21.335938 L 24.253906 20.976562 L 24.253906 22.664062 L 24.613281 22.351562 C 24.640625 22.332031 24.671875 22.320312 24.703125 22.320312 Z M 24.113281 23.117188 C 24.09375 23.117188 24.074219 23.113281 24.054688 23.105469 C 24.003906 23.082031 23.972656 23.03125 23.972656 22.972656 L 23.972656 20.804688 C 23.972656 20.722656 24.035156 20.660156 24.113281 20.660156 L 24.28125 20.660156 C 24.320312 20.660156 24.355469 20.675781 24.382812 20.703125 L 24.703125 21.03125 L 25.027344 20.703125 C 25.054688 20.675781 25.089844 20.660156 25.125 20.660156 L 25.296875 20.660156 C 25.375 20.660156 25.4375 20.722656 25.4375 20.804688 L 25.4375 22.972656 C 25.4375 23.03125 25.402344 23.082031 25.355469 23.105469 C 25.304688 23.128906 25.246094 23.121094 25.207031 23.082031 L 24.703125 22.652344 L 24.203125 23.082031 C 24.175781 23.105469 24.144531 23.117188 24.113281 23.117188 " fill-opacity="1" fill-rule="nonzero"/>
   </g>
   <g clip-path="url(#f8bd5c1d23)">
      <path class="sg" d="M 34.398438 22.648438 C 35.066406 22.648438 35.609375 22.105469 35.609375 21.433594 C 35.609375 20.761719 35.066406 20.21875 34.398438 20.21875 C 33.730469 20.21875 33.1875 20.761719 33.1875 21.433594 C 33.1875 21.753906 33.3125 22.046875 33.515625 22.265625 L 32.773438 23.757812 L 30.71875 24.441406 L 30.71875 22.246094 C 30.71875 22.011719 30.527344 21.824219 30.296875 21.824219 C 30.0625 21.824219 29.875 22.011719 29.875 22.246094 L 29.875 24.292969 L 27.894531 23.148438 C 27.761719 23.070312 27.601562 23.070312 27.46875 23.148438 L 24.855469 24.660156 C 24.726562 24.734375 24.644531 24.875 24.644531 25.027344 L 24.644531 27.808594 L 22.453125 29.078125 L 20.050781 27.6875 C 19.917969 27.613281 19.757812 27.613281 19.628906 27.6875 L 17.011719 29.199219 C 16.882812 29.277344 16.800781 29.414062 16.800781 29.566406 L 16.800781 32.359375 L 15.625 33.109375 C 15.371094 32.890625 15.042969 32.757812 14.683594 32.757812 C 13.886719 32.757812 13.238281 33.410156 13.238281 34.207031 C 13.238281 35.007812 13.886719 35.660156 14.683594 35.660156 C 15.484375 35.660156 16.132812 35.007812 16.132812 34.207031 C 16.132812 34.074219 16.113281 33.945312 16.078125 33.824219 L 17.234375 33.085938 L 19.628906 34.472656 C 19.757812 34.546875 19.917969 34.546875 20.050781 34.472656 L 22.453125 33.082031 L 24.855469 34.472656 C 24.921875 34.511719 24.992188 34.527344 25.066406 34.527344 C 25.140625 34.527344 25.214844 34.507812 25.277344 34.472656 L 27.894531 32.960938 C 28.023438 32.882812 28.105469 32.742188 28.105469 32.59375 L 28.105469 29.808594 L 30.34375 28.515625 L 32.941406 29.378906 C 33.117188 29.4375 33.3125 29.375 33.421875 29.222656 L 35.136719 26.785156 C 35.242188 26.636719 35.242188 26.441406 35.136719 26.292969 L 33.566406 24.066406 L 34.273438 22.640625 C 34.3125 22.648438 34.355469 22.648438 34.398438 22.648438 Z M 34.398438 21.066406 C 34.601562 21.066406 34.765625 21.230469 34.765625 21.433594 C 34.765625 21.636719 34.601562 21.800781 34.398438 21.800781 C 34.195312 21.800781 34.03125 21.636719 34.03125 21.433594 C 34.03125 21.230469 34.195312 21.066406 34.398438 21.066406 Z M 14.683594 34.8125 C 14.351562 34.8125 14.082031 34.539062 14.082031 34.207031 C 14.082031 33.875 14.355469 33.605469 14.683594 33.605469 C 15.015625 33.605469 15.285156 33.875 15.285156 34.207031 C 15.285156 34.539062 15.015625 34.8125 14.683594 34.8125 Z M 19.839844 33.617188 L 17.648438 32.347656 L 17.648438 29.8125 L 19.839844 28.542969 L 22.03125 29.8125 L 22.03125 32.347656 Z M 25.066406 33.617188 L 22.875 32.347656 L 22.875 29.8125 L 25.066406 28.542969 L 27.257812 29.8125 L 27.257812 32.347656 Z M 27.683594 29.078125 L 25.488281 27.808594 L 25.488281 25.273438 L 27.683594 24.003906 L 29.875 25.273438 L 29.875 27.808594 Z M 32.910156 28.476562 L 30.71875 27.746094 L 30.71875 25.332031 L 32.910156 24.605469 L 34.273438 26.539062 Z M 16.515625 25.972656 C 16.769531 25.972656 16.996094 25.878906 17.171875 25.695312 C 17.347656 25.511719 17.4375 25.28125 17.429688 25.027344 L 17.417969 24.765625 C 17.375 23.570312 17.335938 22.4375 17.515625 21.296875 C 17.609375 20.699219 17.75 20.136719 17.945312 19.582031 C 18.191406 18.882812 18.441406 18.410156 18.664062 17.996094 C 19.21875 16.953125 19.480469 16.328125 18.871094 14.589844 C 18.699219 14.105469 18.710938 13.578125 18.742188 12.890625 C 18.777344 12.191406 19.167969 11.765625 19.664062 11.226562 C 20.363281 10.472656 21.230469 9.53125 21.230469 7.542969 C 21.230469 7.273438 21.210938 7.007812 21.179688 6.746094 C 22.191406 6.785156 23.144531 5.710938 23.820312 4.945312 C 23.953125 4.796875 24.078125 4.65625 24.191406 4.53125 C 24.683594 4.007812 25.246094 3.726562 25.828125 3.71875 C 26.34375 3.710938 26.847656 3.921875 27.242188 4.316406 C 28.074219 5.144531 27.933594 6.453125 26.894531 7.886719 C 26.75 7.679688 26.558594 7.492188 26.335938 7.34375 C 25.757812 6.953125 24.996094 6.820312 24.242188 6.96875 C 22.84375 7.253906 21.894531 8.449219 22.125 9.636719 C 22.226562 10.144531 22.535156 10.597656 22.996094 10.910156 C 23.421875 11.191406 23.941406 11.339844 24.484375 11.339844 C 24.683594 11.339844 24.886719 11.320312 25.089844 11.28125 C 26.40625 11.015625 27.324219 9.941406 27.234375 8.828125 C 28.054688 7.84375 28.515625 6.886719 28.609375 5.980469 C 28.699219 5.109375 28.425781 4.304688 27.839844 3.714844 C 27.28125 3.15625 26.5625 2.855469 25.8125 2.871094 C 25 2.882812 24.222656 3.257812 23.574219 3.953125 C 23.453125 4.085938 23.324219 4.230469 23.1875 4.382812 C 22.347656 5.332031 21.601562 6.097656 20.996094 5.84375 C 20.707031 4.832031 20.160156 3.929688 19.382812 3.214844 C 18.253906 2.183594 16.746094 1.613281 15.136719 1.613281 C 13.527344 1.613281 12.019531 2.183594 10.890625 3.214844 C 10.113281 3.929688 9.566406 4.832031 9.28125 5.84375 C 8.675781 6.097656 7.925781 5.332031 7.085938 4.382812 C 6.949219 4.230469 6.824219 4.085938 6.699219 3.953125 C 6.050781 3.257812 5.277344 2.882812 4.460938 2.871094 C 3.710938 2.855469 2.992188 3.15625 2.433594 3.714844 C 1.847656 4.300781 1.574219 5.109375 1.664062 5.980469 C 1.757812 6.886719 2.222656 7.84375 3.039062 8.828125 C 2.949219 9.941406 3.867188 11.015625 5.183594 11.28125 C 5.386719 11.320312 5.589844 11.339844 5.789062 11.339844 C 6.332031 11.339844 6.855469 11.191406 7.277344 10.910156 C 7.738281 10.597656 8.050781 10.148438 8.148438 9.636719 C 8.378906 8.449219 7.429688 7.253906 6.03125 6.96875 C 5.277344 6.820312 4.515625 6.953125 3.9375 7.34375 C 3.714844 7.492188 3.523438 7.679688 3.378906 7.886719 C 2.339844 6.453125 2.199219 5.144531 3.03125 4.316406 C 3.425781 3.921875 3.929688 3.710938 4.445312 3.71875 C 5.027344 3.726562 5.59375 4.007812 6.082031 4.53125 C 6.195312 4.65625 6.320312 4.796875 6.453125 4.945312 C 7.117188 5.695312 8.046875 6.75 9.039062 6.75 C 9.058594 6.75 9.078125 6.746094 9.09375 6.746094 C 9.0625 7.007812 9.042969 7.273438 9.042969 7.542969 C 9.042969 9.53125 9.910156 10.472656 10.609375 11.226562 C 11.105469 11.765625 11.496094 12.191406 11.53125 12.890625 C 11.566406 13.578125 11.574219 14.105469 11.402344 14.589844 C 10.792969 16.328125 11.054688 16.953125 11.609375 17.996094 C 11.832031 18.410156 12.082031 18.882812 12.328125 19.582031 C 12.523438 20.140625 12.664062 20.703125 12.757812 21.300781 C 12.9375 22.4375 12.898438 23.570312 12.855469 24.765625 L 12.84375 25.027344 C 12.835938 25.28125 12.925781 25.511719 13.101562 25.695312 C 13.277344 25.878906 13.503906 25.976562 13.757812 25.976562 L 16.515625 25.976562 Z M 24.921875 10.449219 C 24.390625 10.558594 23.859375 10.46875 23.464844 10.203125 C 23.273438 10.074219 23.027344 9.84375 22.953125 9.472656 C 22.8125 8.742188 23.464844 7.992188 24.410156 7.800781 C 24.554688 7.773438 24.703125 7.757812 24.847656 7.757812 C 25.222656 7.757812 25.582031 7.855469 25.863281 8.046875 C 26.058594 8.175781 26.304688 8.410156 26.375 8.777344 C 26.519531 9.511719 25.867188 10.261719 24.921875 10.449219 Z M 3.894531 8.777344 C 3.96875 8.410156 4.214844 8.175781 4.40625 8.046875 C 4.691406 7.855469 5.046875 7.757812 5.425781 7.757812 C 5.570312 7.757812 5.714844 7.773438 5.863281 7.800781 C 6.808594 7.992188 7.460938 8.742188 7.316406 9.472656 C 7.246094 9.84375 7 10.074219 6.804688 10.203125 C 6.414062 10.46875 5.882812 10.558594 5.351562 10.449219 C 4.40625 10.261719 3.753906 9.511719 3.894531 8.777344 Z M 15.136719 2.460938 C 17.132812 2.460938 19.226562 3.558594 20.035156 5.625 C 18.222656 5.410156 16.613281 5.3125 15.136719 5.328125 C 13.65625 5.3125 12.046875 5.410156 10.238281 5.625 C 11.046875 3.558594 13.140625 2.460938 15.136719 2.460938 Z M 18.683594 6.335938 C 18.664062 6.347656 18.644531 6.359375 18.625 6.371094 C 17.503906 7.058594 17.164062 8.1875 16.890625 9.09375 C 16.75 9.5625 16.617188 10.003906 16.40625 10.261719 C 16.332031 10.355469 16.261719 10.449219 16.191406 10.542969 C 15.9375 10.886719 15.691406 11.210938 15.136719 11.53125 C 14.582031 11.210938 14.335938 10.886719 14.082031 10.542969 C 14.011719 10.449219 13.941406 10.355469 13.867188 10.261719 C 13.65625 10.003906 13.523438 9.5625 13.382812 9.09375 C 13.109375 8.1875 12.769531 7.058594 11.648438 6.371094 C 11.628906 6.359375 11.609375 6.347656 11.589844 6.335938 C 12.867188 6.214844 14.035156 6.164062 15.132812 6.175781 C 15.136719 6.175781 15.140625 6.175781 15.140625 6.175781 C 16.238281 6.164062 17.40625 6.214844 18.683594 6.335938 Z M 13.6875 25.054688 L 13.699219 24.792969 C 13.742188 23.609375 13.785156 22.386719 13.59375 21.164062 C 13.492188 20.515625 13.339844 19.90625 13.125 19.300781 C 12.859375 18.539062 12.582031 18.015625 12.355469 17.59375 C 11.882812 16.703125 11.6875 16.335938 12.199219 14.871094 C 12.421875 14.242188 12.410156 13.609375 12.375 12.847656 C 12.328125 11.839844 11.769531 11.234375 11.226562 10.648438 C 10.570312 9.9375 9.886719 9.199219 9.886719 7.542969 C 9.886719 7.21875 9.914062 6.914062 9.964844 6.621094 C 10.460938 6.734375 10.871094 6.886719 11.207031 7.09375 C 12.050781 7.609375 12.316406 8.488281 12.570312 9.335938 C 12.738281 9.886719 12.894531 10.410156 13.210938 10.796875 C 13.273438 10.875 13.335938 10.960938 13.402344 11.050781 C 13.703125 11.449219 14.074219 11.945312 14.945312 12.390625 C 15.003906 12.421875 15.070312 12.4375 15.136719 12.4375 C 15.203125 12.4375 15.265625 12.421875 15.328125 12.390625 C 16.199219 11.949219 16.570312 11.449219 16.867188 11.050781 C 16.933594 10.960938 16.996094 10.875 17.0625 10.796875 C 17.378906 10.410156 17.535156 9.886719 17.699219 9.335938 C 17.957031 8.488281 18.21875 7.609375 19.0625 7.09375 C 19.398438 6.886719 19.8125 6.734375 20.308594 6.621094 C 20.355469 6.914062 20.382812 7.21875 20.382812 7.542969 C 20.382812 9.199219 19.703125 9.9375 19.042969 10.648438 C 18.503906 11.234375 17.945312 11.839844 17.898438 12.847656 C 17.859375 13.609375 17.847656 14.238281 18.070312 14.871094 C 18.585938 16.335938 18.390625 16.703125 17.914062 17.59375 C 17.691406 18.015625 17.410156 18.539062 17.144531 19.300781 C 16.933594 19.90625 16.78125 20.515625 16.679688 21.164062 C 16.484375 22.386719 16.53125 23.609375 16.574219 24.792969 L 16.582031 25.054688 C 16.582031 25.078125 16.578125 25.085938 16.5625 25.105469 C 16.546875 25.121094 16.539062 25.125 16.515625 25.125 L 13.757812 25.125 C 13.734375 25.125 13.722656 25.121094 13.707031 25.105469 C 13.691406 25.089844 13.6875 25.078125 13.6875 25.054688 Z M 15.136719 19.289062 C 16.066406 19.289062 16.765625 17.972656 16.765625 16.226562 C 16.765625 14.480469 16.0625 13.160156 15.136719 13.160156 C 14.207031 13.160156 13.507812 14.480469 13.507812 16.226562 C 13.507812 17.972656 14.207031 19.289062 15.136719 19.289062 Z M 15.136719 14.007812 C 15.410156 14.007812 15.917969 14.851562 15.917969 16.222656 C 15.917969 17.597656 15.410156 18.441406 15.136719 18.441406 C 14.859375 18.441406 14.351562 17.597656 14.351562 16.222656 C 14.351562 14.851562 14.859375 14.007812 15.136719 14.007812 Z M 15.136719 14.007812 " fill-opacity="1" fill-rule="nonzero"/>
   </g>
</svg>